<?xml version="1.0" encoding="UTF-8" standalone="no"?>
<!-- Created with Inkscape (http://www.inkscape.org/) -->

<svg
   width="22"
   height="22"
   viewBox="0 0 5.8208332 5.8208335"
   version="1.1"
   id="svg5"
   inkscape:version="1.1.1 (3bf5ae0d25, 2021-09-20, custom)"
   sodipodi:docname="keepbelow.svg"
   xmlns:inkscape="http://www.inkscape.org/namespaces/inkscape"
   xmlns:sodipodi="http://sodipodi.sourceforge.net/DTD/sodipodi-0.dtd"
   xmlns="http://www.w3.org/2000/svg"
   xmlns:svg="http://www.w3.org/2000/svg">
  <sodipodi:namedview
     id="namedview7"
     pagecolor="#ffffff"
     bordercolor="#666666"
     borderopacity="1.0"
     inkscape:pageshadow="2"
     inkscape:pageopacity="0.0"
     inkscape:pagecheckerboard="true"
     inkscape:document-units="px"
     showgrid="false"
     units="px"
     height="22px"
     inkscape:zoom="5.6568543"
     inkscape:cx="59.750522"
     inkscape:cy="64.788658"
     inkscape:window-width="1920"
     inkscape:window-height="1006"
     inkscape:window-x="0"
     inkscape:window-y="0"
     inkscape:window-maximized="1"
     inkscape:current-layer="hover-center"
     showguides="false" />
  <defs
     id="defs2" />
  <g
     id="active-center">
    <rect
       style="fill:none;stroke-width:0.264583"
       id="rect846"
       width="5.8208332"
       height="5.8208332"
       x="0"
       y="0" />
    <path
       id="rect2080"
       style="fill:#ffffff;stroke-width:0.264583"
       d="m 2.9104705,3.7457884 -1.403165,-1.403165 c -0.051824,-0.051824 -0.051824,-0.1352651 -1e-7,-0.1870887 0.051824,-0.051824 0.1352651,-0.051824 0.1870888,0 L 2.9104347,3.3715753 4.1264753,2.1555347 c 0.051824,-0.051824 0.135265,-0.051824 0.1870886,0 0.051824,0.051824 0.051824,0.1352651 1e-7,0.1870887 z"
       sodipodi:nodetypes="cssscsscc" />
  </g>
  <g
     id="hover-center">
    <rect
       style="fill:none;stroke-width:0.264583"
       id="rect951"
       width="5.8208332"
       height="5.8208332"
       x="5.8208332"
       y="0" />
    <rect
       style="opacity:0.15;fill:#ffffff;fill-opacity:1;stroke-width:0.264583"
       id="rect1289"
       width="5.8208332"
       height="5.8208332"
       x="5.8208332"
       y="0"
       ry="1.3229166" />
    <path
       id="rect1189"
       style="fill:#ffffff;stroke-width:0.264583"
       d="m 8.7312499,3.7456185 -1.403015,-1.403015 c -0.051824,-0.051824 -0.051824,-0.1352452 0,-0.1870689 0.051824,-0.051824 0.1352449,-0.051824 0.1870686,0 L 8.7312499,3.3714811 9.9471963,2.1555346 c 0.05182,-0.051824 0.1352447,-0.051824 0.1870687,0 0.05182,0.051824 0.05182,0.1352452 0,0.1870689 z" />
  </g>
  <g
     id="pressed-center">
    <rect
       style="fill:none;stroke-width:0.264583"
       id="rect1055"
       width="5.8208332"
       height="5.8208332"
       x="11.641666"
       y="0" />
    <rect
       style="opacity:0.35;fill:#ffffff;fill-opacity:1;stroke-width:0.264583"
       id="rect1872"
       width="5.8208332"
       height="5.8208332"
       x="11.641666"
       y="0"
       ry="1.3229166" />
    <path
       id="rect1492"
       style="fill:#ffffff;stroke-width:0.370417"
       d="m 14.552083,3.7456185 -1.403015,-1.403015 c -0.05183,-0.051824 -0.05183,-0.1352452 0,-0.1870689 0.05182,-0.051824 0.135245,-0.051824 0.187069,0 l 1.215946,1.2159465 1.215947,-1.2159465 c 0.05182,-0.051824 0.135244,-0.051824 0.187068,0 0.05182,0.051824 0.05182,0.1352452 0,0.1870689 z" />
  </g>
  <g
     id="inactive-center"
     style="opacity:0.35">
    <rect
       style="fill:none;stroke-width:0.264583"
       id="rect1057"
       width="5.8208332"
       height="5.8208332"
       x="17.4625"
       y="0" />
    <path
       id="rect1676"
       style="fill:#ffffff;stroke-width:0.264583"
       d="m 20.372916,3.7456185 -1.403015,-1.403015 c -0.05182,-0.051824 -0.05182,-0.1352452 0,-0.1870689 0.05182,-0.051824 0.135245,-0.051824 0.187069,0 l 1.215946,1.2159465 1.215947,-1.2159465 c 0.05182,-0.051824 0.135244,-0.051824 0.187068,0 0.05182,0.051824 0.05182,0.1352452 0,0.1870689 z" />
  </g>
  <g
     id="deactived-center"
     style="opacity:0.35">
    <rect
       style="fill:none;stroke-width:0.264583"
       id="rect1059"
       width="5.8208332"
       height="5.8208332"
       x="23.283333"
       y="0" />
    <path
       id="rect1940"
       style="fill:#ffffff;stroke-width:0.264583"
       d="m 26.19375,3.7456185 -1.403015,-1.403015 c -0.05182,-0.051824 -0.05182,-0.1352452 0,-0.1870689 0.05182,-0.051824 0.135244,-0.051824 0.187068,0 l 1.215947,1.2159465 1.215945,-1.2159465 c 0.05182,-0.051824 0.135245,-0.051824 0.187069,0 0.05182,0.051824 0.05182,0.1352452 0,0.1870689 z" />
  </g>
</svg>
