<?xml version="1.0" encoding="UTF-8" standalone="no"?>
<!-- Created with Inkscape (http://www.inkscape.org/) -->

<svg
   width="242"
   height="154"
   viewBox="0 0 64.029165 40.745835"
   version="1.1"
   id="svg933"
   inkscape:version="1.1.1 (3bf5ae0d25, 2021-09-20, custom)"
   sodipodi:docname="ime.svg"
   xmlns:inkscape="http://www.inkscape.org/namespaces/inkscape"
   xmlns:sodipodi="http://sodipodi.sourceforge.net/DTD/sodipodi-0.dtd"
   xmlns="http://www.w3.org/2000/svg"
   xmlns:svg="http://www.w3.org/2000/svg">
  <sodipodi:namedview
     id="namedview935"
     pagecolor="#ffffff"
     bordercolor="#666666"
     borderopacity="1.0"
     inkscape:pageshadow="2"
     inkscape:pageopacity="0.0"
     inkscape:pagecheckerboard="0"
     inkscape:document-units="px"
     showgrid="false"
     units="mm"
     inkscape:zoom="3.1410732"
     inkscape:cx="104.26373"
     inkscape:cy="71.154025"
     inkscape:window-width="1920"
     inkscape:window-height="1007"
     inkscape:window-x="0"
     inkscape:window-y="0"
     inkscape:window-maximized="1"
     inkscape:current-layer="svg933"
     showguides="false" />
  <defs
     id="defs930">
    <style
       id="current-color-scheme"
       type="text/css">
      .ColorScheme-Text {
        color:#31363b;
      }
      .ColorScheme-Background {
        color:#eff0f1;
      }
      .ColorScheme-Highlight {
        color:#3daee9;
      }
      .ColorScheme-ViewText {
        color:#31363b;
      }
      .ColorScheme-ViewBackground {
        color:#fcfcfc;
      }
      .ColorScheme-ViewHover {
        color:#93cee9;
      }
      .ColorScheme-ViewFocus{
        color:#3daee9;
      }
      .ColorScheme-ButtonText {
        color:#31363b;
      }
      .ColorScheme-ButtonBackground {
        color:#eff0f1;
      }
      .ColorScheme-ButtonHover {
        color:#93cee9;
      }
      .ColorScheme-ButtonFocus{
        color:#3daee9;
      }
      </style>
  </defs>
  <g
     id="ime-pinyin">
    <rect
       style="fill:none;stroke-width:0.132292;stroke-linejoin:round"
       id="rect844"
       width="5.8208332"
       height="5.8208332"
       x="0"
       y="0" />
    <path
       id="rect1412"
       class="ColorScheme-Text"
       style="fill:currentColor;fill-opacity:1;stroke-width:0.500001;stroke-linejoin:round"
       d="M 6,3 C 4.338,3 3,4.338 3,6 v 10 c 0,1.662 1.338,3 3,3 h 10 c 1.662,0 3,-1.338 3,-3 V 6 C 19,4.338 17.662,3 16,3 Z m 0,1 h 10 c 1.108,0 2,0.8920001 2,2 v 10 c 0,1.108 -0.892,2 -2,2 H 6 C 4.8920001,18 4,17.108 4,16 V 6 C 4,4.8920001 4.8920001,4 6,4 Z M 6.7675781,5 V 7.6132812 H 5.1699219 V 8.5234375 H 6.7675781 V 11.371094 C 6.1045228,11.579111 5.4940409,11.760614 5,11.890625 l 0.2460938,0.962891 1.5214843,-0.507813 v 3.353516 c 0,0.195016 -0.064688,0.248047 -0.2207031,0.248047 -0.1560113,0 -0.6492668,-6.71e-4 -1.1953125,-0.01367 0.130012,0.273021 0.2461553,0.702869 0.2851563,0.96289 0.806067,0 1.3136449,-0.0393 1.6386718,-0.195312 0.3250281,-0.156015 0.4414063,-0.442907 0.4414063,-1.001953 V 12.033203 L 9.0039062,11.591797 8.875,10.707031 7.7167969,11.072266 V 8.5234375 H 9.0175781 V 7.6132812 H 7.7167969 V 5 Z M 15.154297,5.013672 C 14.894275,5.8327401 14.40041,6.9900776 13.984375,7.7441406 H 9.7460938 v 0.921875 h 1.5722652 v 2.4843754 0.128906 H 9.3164062 v 0.935547 H 11.279297 C 11.175288,13.631962 10.720049,15.257459 9.0039062,16.310547 9.2249247,16.46656 9.5249571,16.791983 9.6679688,17 11.553126,15.725894 12.098505,13.865981 12.228516,12.214844 h 1.923828 v 4.68164 h 0.949218 v -4.68164 H 17 V 11.279297 H 15.101562 V 8.6660156 h 1.59961 V 7.7441406 H 14.958984 C 15.349017,7.042082 15.791608,6.1433463 16.181641,5.3632812 Z m -3.796875,0.078125 -0.832031,0.3378906 c 0.468039,0.7150594 0.949515,1.6773409 1.144531,2.2753906 L 12.566406,7.2890625 C 12.345388,6.7170148 11.825461,5.7808546 11.357422,5.091797 Z m 0.910156,3.5742187 h 1.884766 v 2.6132813 h -1.884766 v -0.128906 z"
       transform="scale(0.26458333)" />
  </g>
  <g
     id="ime-quanpin">
    <rect
       style="fill:none;stroke-width:0.132292;stroke-linejoin:round"
       id="rect952"
       width="5.8208332"
       height="5.8208332"
       x="5.8208332"
       y="0" />
    <path
       id="rect18218"
       class="ColorScheme-Text"
       style="fill:currentColor;fill-opacity:1;stroke-width:0.500001;stroke-linejoin:round"
       d="m 28,3 c -1.662,0 -3,1.338 -3,3 v 10 c 0,1.662 1.338,3 3,3 h 10 c 1.661998,0 3,-1.338 3,-3 V 6 C 41,4.338 39.661998,3 38,3 Z m 0,1 h 10 c 1.107999,0 2,0.8920001 2,2 v 10 c 0,1.108 -0.892001,2 -2,2 H 28 c -1.108,0 -2,-0.892 -2,-2 V 6 c 0,-1.1079999 0.892,-2 2,-2 z m 4.892578,1.1992188 C 31.618131,7.2055273 29.309147,9.0620566 27,10.109375 c 0.239748,0.201893 0.517449,0.517165 0.65625,0.769531 0.504732,-0.252366 1.00984,-0.543917 1.501953,-0.859375 v 0.820313 h 3.330078 v 1.96875 h -3.253906 v 0.845703 h 3.253906 v 2.082031 h -4.857422 v 0.857422 h 10.763672 v -0.857422 h -4.921875 v -2.082031 h 3.408203 v -0.845703 h -3.408203 v -1.96875 h 3.408203 v -0.832032 c 0.479495,0.328075 0.958162,0.629702 1.462891,0.919922 C 38.482572,10.650132 38.760253,10.322087 39,10.132812 36.943219,9.0476395 35.076387,7.7369562 33.511719,5.9199219 l 0.21289,-0.328125 z m 0.08789,1.4140624 c 1.198737,1.3753939 2.474369,2.4344873 3.875,3.3808594 H 29.195312 C 30.62118,9.0730051 31.945769,7.9003468 32.980468,6.6132812 Z"
       transform="scale(0.26458333)" />
  </g>
  <g
     id="ime-shuangpin">
    <rect
       style="fill:none;stroke-width:0.132292;stroke-linejoin:round"
       id="rect1059"
       width="5.8208332"
       height="5.8208332"
       x="11.641666"
       y="0" />
    <path
       id="rect29464"
       class="ColorScheme-Text"
       style="fill:currentColor;stroke-width:0.132292;stroke-linejoin:round"
       d="m 13.229167,0.79375 c -0.439738,0 -0.79375,0.3540125 -0.79375,0.79375 v 2.6458333 c 0,0.4397375 0.354012,0.79375 0.79375,0.79375 H 15.875 c 0.439737,0 0.79375,-0.3540125 0.79375,-0.79375 V 1.5875 c 0,-0.4397375 -0.354013,-0.79375 -0.79375,-0.79375 z m 0,0.2645833 H 15.875 c 0.293158,0 0.529167,0.2360084 0.529167,0.5291667 V 4.2333333 C 16.404167,4.5264916 16.168158,4.7625 15.875,4.7625 H 13.229167 C 12.936008,4.7625 12.7,4.5264916 12.7,4.2333333 V 1.5875 c 0,-0.2931583 0.236008,-0.5291667 0.529167,-0.5291667 z m 0.995805,0.396875 -0.04444,0.010335 h -1.116728 v 0.2464966 h 1.051615 C 14.060616,2.1127687 13.974712,2.4760016 13.861686,2.8013794 13.676734,2.5479272 13.474903,2.2943351 13.286528,2.0717081 l -0.19172,0.1436605 c 0.219202,0.2603023 0.452147,0.5688285 0.654224,0.8702311 -0.205502,0.4726543 -0.472772,0.8353819 -0.784449,1.0614339 0.06165,0.044525 0.147519,0.1409211 0.188619,0.2025716 0.301403,-0.2397522 0.561701,-0.5720024 0.763778,-1.0035562 0.130151,0.2055017 0.239683,0.3971291 0.311609,0.5581053 L 14.447697,3.729488 C 14.355221,3.5411113 14.211222,3.3048133 14.03997,3.0582112 14.207797,2.6232324 14.327653,2.1060726 14.389303,1.5032674 Z m 1.599385,0 -0.04444,0.010335 H 14.53348 v 0.2464966 h 0.08527 c 0.09933,0.6404805 0.239877,1.2024432 0.462504,1.6613972 -0.239752,0.3390781 -0.534518,0.5921414 -0.859896,0.7565429 0.05823,0.051375 0.137316,0.1545492 0.171566,0.2196248 0.315103,-0.1746766 0.592238,-0.4110831 0.831991,-0.7193359 0.188375,0.3048278 0.428268,0.551053 0.729671,0.7291544 0.0411,-0.071926 0.12335,-0.1677327 0.185001,-0.2191079 C 15.82448,3.9724893 15.577947,3.715544 15.386145,3.3935913 15.687548,2.9175122 15.896409,2.2944493 15.992309,1.5032674 Z m -0.962215,0.2568319 h 0.845943 C 15.622459,2.26347 15.461682,2.7364273 15.24248,3.1166056 15.060954,2.7158771 14.940918,2.2360698 14.862142,1.7120402 Z" />
  </g>
  <g
     id="ime-bopomofo">
    <rect
       style="fill:none;stroke-width:0.132292;stroke-linejoin:round"
       id="rect1166"
       width="5.8208332"
       height="5.8208332"
       x="17.4625"
       y="0" />
    <path
       id="rect34948"
       class="ColorScheme-Text"
       style="fill:currentColor;stroke-width:0.132292;stroke-linejoin:round"
       d="m 19.05,0.79375 c -0.439737,0 -0.79375,0.3540125 -0.79375,0.79375 v 2.6458333 c 0,0.4397375 0.354013,0.79375 0.79375,0.79375 h 2.645833 c 0.439738,0 0.79375,-0.3540125 0.79375,-0.79375 V 1.5875 c 0,-0.4397375 -0.354012,-0.79375 -0.79375,-0.79375 z m 0,0.2645833 h 2.645833 c 0.293159,0 0.529167,0.2360084 0.529167,0.5291667 V 4.2333333 C 22.225,4.5264916 21.988992,4.7625 21.695833,4.7625 H 19.05 c -0.293158,0 -0.529167,-0.2360084 -0.529167,-0.5291667 V 1.5875 c 0,-0.2931583 0.236009,-0.5291667 0.529167,-0.5291667 z m 1.716174,0.2645834 -0.234611,0.0863 C 20.6489,1.588673 20.770052,1.83046 20.818368,1.9823079 L 21.070032,1.8820556 C 21.018266,1.7302077 20.886962,1.4989223 20.766174,1.3229167 Z m -1.656229,0.055294 -0.145211,0.1860351 c 0.224321,0.1069838 0.510828,0.2726537 0.655774,0.3865397 L 19.768819,1.7368449 C 19.620422,1.6298611 19.330815,1.474841 19.109945,1.3782107 Z m 0.683162,0.6175333 v 0.2449463 h 0.907438 v 0.7803141 h -0.77618 v 0.2449463 h 0.77618 V 4.1563353 H 19.68252 v 0.2485639 h 2.277897 V 4.1563353 H 20.969779 V 3.2659505 h 0.783415 V 3.0210042 H 20.969779 V 2.2406901 h 0.907955 V 1.9957438 Z M 18.92701,2.3269897 18.785417,2.5202596 c 0.217419,0.1035327 0.50016,0.2657695 0.638204,0.3762044 L 19.568832,2.679423 C 19.423885,2.5724392 19.137527,2.4201692 18.92701,2.3269897 Z m 0.617534,0.8562785 C 19.34438,3.5766925 19.072028,4.0321949 18.885669,4.2979289 l 0.217041,0.1756998 c 0.207065,-0.3209515 0.445477,-0.7559136 0.628385,-1.118278 z" />
  </g>
  <g
     id="ime-chewing"
     transform="translate(5.8208332)">
    <rect
       style="fill:none;stroke-width:0.132292;stroke-linejoin:round"
       id="rect5668"
       width="5.8208332"
       height="5.8208332"
       x="17.4625"
       y="0" />
    <path
       id="rect38261"
       class="ColorScheme-Text"
       style="fill:currentColor;fill-opacity:1;stroke-width:0.132292;stroke-linejoin:round"
       d="m 19.05,0.79375 c -0.439738,0 -0.79375,0.3540125 -0.79375,0.79375 v 2.6458333 c 0,0.4397375 0.354012,0.79375 0.79375,0.79375 h 2.645833 c 0.439738,0 0.79375,-0.3540125 0.79375,-0.79375 V 1.5875 c 0,-0.4397375 -0.354012,-0.79375 -0.79375,-0.79375 z m 0,0.2645833 h 2.645833 c 0.293158,0 0.529167,0.2360084 0.529167,0.5291667 V 4.2333333 C 22.225,4.5264916 21.988991,4.7625 21.695833,4.7625 H 19.05 c -0.293158,0 -0.529167,-0.2360084 -0.529167,-0.5291667 V 1.5875 c 0,-0.2931583 0.236009,-0.5291667 0.529167,-0.5291667 z m 1.999878,0.2645834 V 1.876888 h -0.315226 c 0.03462,-0.128108 0.06258,-0.2632375 0.08682,-0.3948079 l -0.242363,-0.041341 c -0.0554,0.3531627 -0.152752,0.7202104 -0.298173,0.9591146 0.05886,0.024237 0.170118,0.083198 0.218592,0.1178223 0.06232,-0.1142585 0.117407,-0.2527986 0.165881,-0.4051433 h 0.384473 v 0.550354 h -0.74104 V 2.8949139 H 21.96042 V 2.6628865 h -0.664559 v -0.550354 h 0.584978 V 1.876888 H 21.295857 V 1.3229167 Z m -2.264461,0.1488281 v 0.2216919 h 0.433048 V 2.1435384 H 18.844328 V 4.4979166 H 19.04845 V 4.2519367 h 0.924491 V 4.4529581 H 20.18068 V 2.1435384 H 19.796207 V 1.6934367 h 0.419096 V 1.4717448 Z m 0.6196,0.2216919 h 0.201021 V 2.1435384 H 19.405017 Z M 19.04845,2.3652303 h 0.211356 V 2.624646 c 0,0.173119 -0.02785,0.3810592 -0.211356,0.5472534 z m 0.360184,0 h 0.190686 v 0.5467366 c 0,0.1661943 0.04134,0.197404 0.179834,0.197404 h 0.169499 0.02429 V 4.0410971 H 19.04845 V 3.2029053 c 0.03116,0.020774 0.07276,0.058962 0.09353,0.083199 0.21813,-0.1869685 0.26665,-0.4537155 0.26665,-0.6614583 z m 0.339514,0 h 0.224793 v 0.5813599 c -0.0069,0.00692 -0.01705,0.010335 -0.05168,0.010335 h -0.128158 c -0.03809,0 -0.04496,-0.00651 -0.04496,-0.048059 z m 0.682129,0.830957 v 1.3017293 h 0.238746 V 4.335136 h 0.92449 v 0.1560626 h 0.252699 V 3.1961873 Z m 0.238746,0.2351278 h 0.92449 v 0.6681763 h -0.92449 z m -1.474846,0.052193 v 0.2041218 h 0.640271 V 3.4835084 Z" />
  </g>
  <g
     id="ime-rime"
     transform="translate(5.8208332)">
    <rect
       style="fill:none;stroke-width:0.132292;stroke-linejoin:round"
       id="rect5775"
       width="5.8208332"
       height="5.8208332"
       x="23.283333"
       y="0" />
    <path
       id="rect105617"
       class="ColorScheme-Text"
       style="fill:currentColor;fill-opacity:1;stroke-width:0.500001;stroke-linejoin:round"
       d="m 116,3 c -1.662,0 -3,1.338 -3,3 v 10 c 0,1.662 1.338,3 3,3 h 10 c 1.662,0 3,-1.338 3,-3 V 6 c 0,-1.662 -1.338,-3 -3,-3 z m 0,1 h 10 c 1.108,0 2,0.8920001 2,2 v 10 c 0,1.108 -0.892,2 -2,2 h -10 c -1.108,0 -2,-0.892 -2,-2 V 6 c 0,-1.1079999 0.892,-2 2,-2 z m 4.5,1 v 6.982422 c -1.811,-0.08165 -2.72052,-0.606578 -3.26172,-1.492188 C 116.64843,9.5250243 116.5,7.9791001 116.5,6 h -1 c 0,2.0208 0.10155,3.7249655 0.88672,5.009766 0.72658,1.189 2.06288,1.874003 4.11328,1.970703 V 16 h -5 v 1 h 11 v -1 h -5 v -3.019531 c 2.0504,-0.09674 3.38668,-0.781754 4.11328,-1.970703 C 126.39843,9.7249655 126.5,8.0208998 126.5,6 h -1 c 0,1.9791999 -0.14843,3.5250345 -0.73828,4.490234 -0.5412,0.8856 -1.45082,1.410488 -3.26172,1.492188 V 5 Z"
       transform="matrix(0.26458333,0,0,0.26458333,-5.8208332,0)" />
  </g>
  <g
     id="ime-erbi">
    <rect
       style="fill:none;stroke-width:0.132292;stroke-linejoin:round"
       id="rect5882"
       width="5.8208332"
       height="5.8208332"
       x="34.924999"
       y="0" />
    <path
       id="rect65934"
       class="ColorScheme-Text"
       style="fill:currentColor;fill-opacity:1;stroke-width:0.132292;stroke-linejoin:round"
       d="m 36.5125,0.79375 c -0.439738,0 -0.79375,0.3540125 -0.79375,0.79375 v 2.6458333 c 0,0.4397375 0.354012,0.79375 0.79375,0.79375 h 2.645833 c 0.439737,0 0.79375,-0.3540125 0.79375,-0.79375 V 1.5875 c 0,-0.4397375 -0.354013,-0.79375 -0.79375,-0.79375 z m 0,0.2645833 h 2.645833 c 0.293158,0 0.529167,0.2360084 0.529167,0.5291667 V 4.2333333 C 39.6875,4.5264916 39.451491,4.7625 39.158333,4.7625 H 36.5125 c -0.293159,0 -0.529167,-0.2360084 -0.529167,-0.5291667 V 1.5875 c 0,-0.2931583 0.236008,-0.5291667 0.529167,-0.5291667 z m 0,0.79375 v 0.2645834 h 2.645833 V 1.8520833 Z M 36.247916,3.7041666 V 3.96875 h 3.175 V 3.7041666 Z" />
  </g>
  <g
     id="ime-wubi"
     transform="translate(5.8208351)">
    <rect
       style="fill:none;stroke-width:0.132292;stroke-linejoin:round"
       id="rect5989"
       width="5.8208346"
       height="5.8208332"
       x="34.924999"
       y="0" />
    <path
       id="rect71638"
       class="ColorScheme-Text"
       style="fill:currentColor;fill-opacity:1;stroke-width:0.500001;stroke-linejoin:round"
       d="m 160,3 c -1.662,0 -3,1.338 -3,3 v 10 c 0,1.662 1.338,3 3,3 h 10 c 1.662,0 3,-1.338 3,-3 V 6 c 0,-1.662 -1.338,-3 -3,-3 z m 0,1 h 10 c 1.108,0 2,0.8920001 2,2 v 10 c 0,1.108 -0.892,2 -2,2 h -10 c -1.108,0 -2,-0.892 -2,-2 V 6 c 0,-1.1079999 0.892,-2 2,-2 z m -0.13672,1.8007812 V 6.796875 h 3.85547 c -0.12136,0.9168552 -0.26966,1.928216 -0.41797,2.9394531 h -2.69726 v 0.9843749 h 2.53515 c -0.26967,1.61798 -0.5526,3.197049 -0.82226,4.4375 H 159 v 0.996094 h 12 v -0.996094 h -2.75 c 0.20224,-1.766294 0.40366,-3.8979 0.49805,-5.3945311 l -0.78125,-0.080078 -0.18946,0.052734 h -3.41015 l 0.45703,-2.9394531 h 5.21875 V 5.8007812 Z m 4.35547,4.9199218 h 3.39648 c -0.0944,1.253934 -0.25635,2.994802 -0.43164,4.4375 h -3.76171 c 0.24268,-1.226968 0.5272,-2.806037 0.79687,-4.4375 z"
       transform="matrix(0.26458333,0,0,0.26458333,-5.8208351,0)" />
  </g>
  <g
     id="ime-wbpy"
     transform="translate(5.8208351)">
    <rect
       style="fill:none;stroke-width:0.132292;stroke-linejoin:round"
       id="rect6096"
       width="5.8208346"
       height="5.8208332"
       x="40.745834"
       y="0" />
    <path
       id="rect71638-5"
       style="fill:currentColor;fill-opacity:1;stroke-width:0.500001;stroke-linejoin:round"
       class="ColorScheme-Text"
       d="m 182,3 c -1.662,0 -3,1.338 -3,3 v 10 c 0,1.662 1.338,3 3,3 h 5 v -1 h -5 c -1.108,0 -2,-0.892 -2,-2 V 6 c 0,-1.1079999 0.892,-2 2,-2 h 10 c 1.108,0 2,0.8920001 2,2 v 5 h 1 V 6 c 0,-1.662 -1.338,-3 -3,-3 z m -0.13672,2.8007812 V 6.796875 h 3.85547 c -0.12136,0.9168552 -0.26967,1.928216 -0.41797,2.9394531 h -2.69726 v 0.9843749 h 2.53515 c -0.26967,1.61798 -0.5526,3.197049 -0.82226,4.4375 H 181 v 0.996094 h 6 v -0.996094 h -1.57812 c 0.24267,-1.226968 0.5272,-2.806037 0.79687,-4.4375 h 3.39648 c -0.007,0.0949 -0.0175,0.208457 -0.0254,0.308594 C 189.7239,11.011125 189.86082,11 190,11 h 0.6582 c 0.0357,-0.441409 0.0661,-0.85947 0.0899,-1.2363281 l -0.78125,-0.080078 -0.18946,0.052734 h -3.41015 l 0.45703,-2.9394531 h 5.21875 V 5.8007812 Z M 189.94727,12 C 188.86339,12.027277 188,12.909313 188,14 v 4 c 0,1.108 0.892,2 2,2 h 4 c 1.108,0 2,-0.892 2,-2 v -4 c 0,-1.108 -0.892,-2 -2,-2 h -4 c -0.0173,0 -0.0355,-4.33e-4 -0.0527,0 z M 190,13 h 1.68164 c 0.78432,0 1.35435,0.159188 1.71289,0.478516 0.35854,0.313725 0.53906,0.754486 0.53906,1.320312 0,0.336135 -0.0773,0.65009 -0.22851,0.941406 -0.14566,0.291317 -0.39095,0.528017 -0.73828,0.712891 -0.34734,0.179271 -0.81827,0.269531 -1.41211,0.269531 H 190.9082 V 19 H 190 Z m 0.9082,0.765625 v 2.191406 h 0.54492 c 0.50981,0 0.89465,-0.0861 1.15235,-0.259765 0.2633,-0.17367 0.39453,-0.461873 0.39453,-0.865235 0,-0.358543 -0.11186,-0.625158 -0.33594,-0.798828 -0.2241,-0.179273 -0.5746,-0.267578 -1.05078,-0.267578 z"
       transform="matrix(0.26458333,0,0,0.26458333,-5.8208351,0)" />
  </g>
  <g
     id="ime-ziranma"
     transform="translate(5.8208351)">
    <rect
       style="fill:none;stroke-width:0.132292;stroke-linejoin:round"
       id="rect6203"
       width="5.8208346"
       height="5.8208332"
       x="46.566669"
       y="0" />
    <path
       id="rect55728"
       class="ColorScheme-Text"
       style="fill:currentColor;fill-opacity:1;stroke-width:0.132292;stroke-linejoin:round"
       d="m 48.154165,0.79375 c -0.439737,0 -0.79375,0.3540125 -0.79375,0.79375 v 2.6458333 c 0,0.4397375 0.354013,0.79375 0.79375,0.79375 h 2.645833 c 0.439738,0 0.79375,-0.3540125 0.79375,-0.79375 V 1.5875 c 0,-0.4397375 -0.354012,-0.79375 -0.79375,-0.79375 z m 0,0.2645833 h 2.645833 c 0.293159,0 0.529167,0.2360084 0.529167,0.5291667 v 2.6458333 c 0,0.2931583 -0.236008,0.5291667 -0.529167,0.5291667 h -2.645833 c -0.293158,0 -0.529167,-0.2360084 -0.529167,-0.5291667 V 1.5875 c 0,-0.2931583 0.236009,-0.5291667 0.529167,-0.5291667 z m 1.136883,0.2645834 c -0.02752,0.1375948 -0.08276,0.3266526 -0.134361,0.4780069 h -0.87023 v 2.696993 h 0.261482 V 4.3051634 h 1.840198 v 0.1757 h 0.271817 V 1.8009236 H 49.41817 c 0.05848,-0.130715 0.117046,-0.2887514 0.172082,-0.4366658 z m -0.743109,0.7260538 h 1.840198 V 2.561084 h -1.840198 z m 0,0.756543 h 1.840198 V 3.310909 h -1.840198 z m 0,0.7462076 h 1.840198 v 0.5095296 h -1.840198 z" />
  </g>
  <g
     id="ime-cangjie"
     transform="translate(5.8208351)">
    <rect
       style="fill:none;stroke-width:0.132292;stroke-linejoin:round"
       id="rect6310"
       width="5.8208346"
       height="5.8208332"
       x="52.387505"
       y="0" />
    <path
       id="rect50646"
       class="ColorScheme-Text"
       style="fill:currentColor;fill-opacity:1;stroke-width:0.132292;stroke-linejoin:round"
       d="m 53.974998,0.79375 c -0.439737,0 -0.79375,0.3540125 -0.79375,0.79375 v 2.6458333 c 0,0.4397375 0.354013,0.79375 0.79375,0.79375 h 2.645834 c 0.439737,0 0.79375,-0.3540125 0.79375,-0.79375 V 1.5875 c 0,-0.4397375 -0.354013,-0.79375 -0.79375,-0.79375 z m 0,0.2645833 h 2.645834 c 0.293158,0 0.529166,0.2360084 0.529166,0.5291667 v 2.6458333 c 0,0.2931583 -0.236008,0.5291667 -0.529166,0.5291667 h -2.645834 c -0.293158,0 -0.529166,-0.2360084 -0.529166,-0.5291667 V 1.5875 c 0,-0.2931583 0.236008,-0.5291667 0.529166,-0.5291667 z m 1.339969,0.2645834 c -0.327141,0.4545552 -0.970928,0.8127772 -1.604552,0.995288 0.06198,0.058541 0.127659,0.154887 0.168982,0.223759 0.313367,-0.1067516 0.622821,-0.2512237 0.901755,-0.4268473 v 0.1307413 h 1.040246 V 2.0701579 c 0.275487,0.189398 0.585108,0.3478227 0.884701,0.4407999 0.04132,-0.068872 0.120774,-0.1686613 0.179316,-0.2237589 C 56.365432,2.1528985 55.797319,1.8393637 55.483949,1.5053345 l 0.05478,-0.06873 z m 0.02791,0.3410644 c 0.130858,0.1411877 0.28929,0.2753156 0.46147,0.3958415 h -0.940513 c 0.175623,-0.1205259 0.337852,-0.2512102 0.479039,-0.3958415 z m -1.057303,0.7782471 v 0.488859 c 0,0.413232 -0.06893,0.9644528 -0.544152,1.357023 0.05854,0.034436 0.15849,0.1273202 0.196371,0.1824178 0.351245,-0.2927059 0.506111,-0.6890083 0.571539,-1.060917 H 56.28597 V 2.4422282 Z m 0.261483,0.1891357 h 1.491382 v 0.2030884 h -1.491382 z m 0,0.3720703 h 1.491382 v 0.2201416 h -1.504818 c 0.0069,-0.075759 0.01,-0.1512696 0.01344,-0.2201416 z m -0.02739,0.5782592 v 0.9368938 h 0.24443 v -0.099735 h 1.360125 v 0.079065 h 0.251664 V 3.5816934 Z m 0.24443,0.2103231 h 1.360125 v 0.4237469 h -1.360125 z" />
  </g>
  <g
     id="ime-pinyin-libpinyin">
    <rect
       style="fill:none;stroke-width:0.132292;stroke-linejoin:round"
       id="rect6417"
       width="5.8208332"
       height="5.8208332"
       x="0"
       y="5.8208332" />
    <path
       id="rect28222"
       class="ColorScheme-Text"
       style="fill:currentColor;stroke-width:0.500001;stroke-linejoin:round"
       d="m 6,25 c -1.662,0 -3,1.338 -3,3 v 10 c 0,1.661998 1.338,3 3,3 h 10 c 1.662,0 3,-1.338002 3,-3 V 28 c 0,-1.662 -1.338,-3 -3,-3 z m 0.7675781,2 h 0.9492188 v 2.613281 h 1.3007812 v 0.910157 H 7.7167969 v 2.548828 L 8.875,32.707031 9.0039062,33.591797 7.7167969,34.033203 v 3.666016 c 0,0.559048 -0.1163782,0.845934 -0.4414063,1.001953 -0.3250269,0.156019 -0.8326048,0.195312 -1.6386718,0.195312 -0.039001,-0.260024 -0.1551443,-0.689857 -0.2851563,-0.96289 0.5460457,0.01286 1.0393012,0.01367 1.1953125,0.01367 0.1560151,0 0.2207031,-0.05303 0.2207031,-0.248047 V 34.345703 L 5.2460938,34.853516 5,33.890625 C 5.4940409,33.760614 6.1045228,33.579111 6.7675781,33.371094 V 30.523438 H 5.1699219 v -0.910157 h 1.5976562 z m 8.3867189,0.01367 1.027344,0.349609 c -0.390034,0.780065 -0.832623,1.678801 -1.222657,2.38086 h 1.742188 v 0.921875 h -1.59961 v 2.613281 H 17 v 0.935547 h -1.898438 v 4.68164 h -0.949218 v -4.68164 H 12.228516 C 12.098504,35.865981 11.553126,37.725892 9.6679688,39 9.5249571,38.791982 9.2249255,38.466566 9.0039062,38.310547 10.720049,37.257459 11.175288,35.631964 11.279297,34.214844 H 9.3164062 V 33.279297 H 11.318359 V 33.150391 30.666016 H 9.7460938 v -0.921875 h 4.2382812 c 0.416035,-0.754063 0.909898,-1.911423 1.169922,-2.730469 z m -3.796875,0.07813 c 0.468039,0.689058 0.987966,1.625219 1.208984,2.197265 l -0.896484,0.416016 c -0.195016,-0.598049 -0.676492,-1.560353 -1.144531,-2.27539 z m 0.910156,3.574219 v 2.484375 0.128906 h 1.884766 v -2.613281 z"
       transform="scale(0.26458333)" />
  </g>
  <g
     id="ime-quanpin-libpinyin">
    <rect
       style="fill:none;stroke-width:0.132292;stroke-linejoin:round"
       id="rect6524"
       width="5.8208332"
       height="5.8208332"
       x="5.8208332"
       y="5.8208332" />
    <path
       id="rect28708"
       class="ColorScheme-Text"
       style="fill:currentColor;stroke-width:0.500001;stroke-linejoin:round"
       d="m 28,25 c -1.661998,0 -3,1.338 -3,3 v 10 c 0,1.661998 1.338002,3 3,3 h 10 c 1.661994,0 3,-1.338002 3,-3 V 28 c 0,-1.662 -1.338006,-3 -3,-3 z m 4.867188,2.185547 0.832031,0.392578 -0.212891,0.328125 c 1.564667,1.817034 3.431501,3.127719 5.488281,4.212891 -0.239746,0.189276 -0.517428,0.517319 -0.65625,0.794921 -0.504729,-0.290219 -0.983393,-0.591847 -1.46289,-0.919921 v 0.832031 h -3.408203 v 1.96875 h 3.408203 v 0.845703 h -3.408203 v 2.082031 h 4.921875 v 0.857422 H 27.605469 v -0.857422 h 4.857422 v -2.082031 h -3.253907 v -0.845703 h 3.253907 v -1.96875 h -3.330079 v -0.820313 c -0.492113,0.315458 -0.997219,0.607009 -1.501953,0.859375 -0.138802,-0.252366 -0.416515,-0.567636 -0.65625,-0.769531 2.309148,-1.047318 4.618129,-2.903848 5.892579,-4.910156 z m 0.08789,1.414062 c -1.034698,1.287066 -2.359287,2.459724 -3.785156,3.38086 h 7.660156 c -1.400629,-0.946373 -2.676262,-2.005466 -3.875,-3.38086 z"
       transform="scale(0.26458333)" />
  </g>
  <g
     id="ime-shuangpin-libpinyin">
    <rect
       style="fill:none;stroke-width:0.132292;stroke-linejoin:round"
       id="rect6631"
       width="5.8208332"
       height="5.8208332"
       x="11.641666"
       y="5.8208332" />
    <path
       id="rect34344"
       class="ColorScheme-Text"
       style="fill:currentColor;stroke-width:0.500001;stroke-linejoin:round"
       d="m 50,25 c -1.662002,0 -3,1.338 -3,3 v 10 c 0,1.662002 1.337998,3 3,3 h 10 c 1.661998,0 3,-1.337998 3,-3 V 28 c 0,-1.662 -1.338002,-3 -3,-3 z m 3.763672,2.5 0.621094,0.181641 c -0.233008,2.278318 -0.686006,4.232939 -1.320313,5.876953 0.647252,0.932039 1.191485,1.825133 1.541016,2.537109 l -0.828125,0.660156 c -0.271847,-0.608412 -0.685825,-1.332675 -1.177735,-2.109375 -0.763755,1.631069 -1.747557,2.886821 -2.886718,3.792969 C 49.557552,38.206445 49.233008,37.84213 49,37.673828 c 1.177992,-0.854369 2.188143,-2.225311 2.964844,-4.011719 -0.763756,-1.139159 -1.644177,-2.305243 -2.472656,-3.289062 l 0.724609,-0.542969 c 0.711968,0.841425 1.474797,1.799883 2.173828,2.757813 0.427185,-1.229772 0.751866,-2.602622 0.958984,-4.117188 H 49.375 v -0.931641 h 4.220703 z m 6.044922,0 0.634765,0.181641 c -0.362456,2.990293 -1.151854,5.345178 -2.291015,7.144531 0.724921,1.216829 1.656685,2.187963 2.847656,2.822266 -0.233012,0.194175 -0.54388,0.556263 -0.699219,0.828124 -1.139161,-0.673137 -2.045844,-1.603753 -2.757812,-2.755859 -0.906153,1.165051 -1.953591,2.058554 -3.144531,2.71875 C 54.268989,38.193497 53.970082,37.803567 53.75,37.609375 54.979775,36.988018 56.093851,36.031554 57,34.75 56.158575,33.015372 55.627374,30.891417 55.251953,28.470703 h -0.322265 v -0.931641 h 4.710937 z m -3.636719,0.970703 c 0.297736,1.980584 0.751417,3.794029 1.4375,5.308594 0.82848,-1.436896 1.43614,-3.22445 1.759766,-5.308594 z"
       transform="scale(0.26458333)" />
  </g>
  <g
     id="ime-bopomofo-libpinyin">
    <rect
       style="fill:none;stroke-width:0.132292;stroke-linejoin:round"
       id="rect6738"
       width="5.8208332"
       height="5.8208332"
       x="17.4625"
       y="5.8208332" />
    <path
       id="rect37406"
       class="ColorScheme-Text"
       style="fill:currentColor;stroke-width:0.500001;stroke-linejoin:round"
       d="m 72,25 c -1.662002,0 -3,1.338 -3,3 v 10 c 0,1.662002 1.337998,3 3,3 h 10 c 1.661998,0 3,-1.337998 3,-3 V 28 c 0,-1.662 -1.338002,-3 -3,-3 z m 6.486328,2 c 0.456522,0.665219 0.952771,1.539368 1.148438,2.113281 l -0.951172,0.378907 c -0.182612,-0.573914 -0.640506,-1.487755 -1.083985,-2.166016 z m -6.259766,0.208984 c 0.834785,0.365216 1.929364,0.951121 2.490235,1.355469 l -0.560547,0.808594 c -0.547827,-0.430435 -1.630681,-1.056589 -2.478516,-1.460938 z m 2.582032,2.333985 H 82.6875 v 0.925781 h -3.431641 v 2.949219 h 2.960938 v 0.925781 h -2.960938 v 3.365234 H 83 v 0.939454 h -8.609375 v -0.939454 h 3.847656 V 34.34375 h -2.933593 v -0.925781 h 2.933593 V 30.46875 h -3.429687 z m -3.273438,1.251953 c 0.795655,0.352173 1.877954,0.927683 2.425782,1.332031 l -0.548829,0.820313 C 72.890368,32.529874 71.821741,31.916695 71,31.525391 Z m 2.333985,3.236328 0.705078,0.650391 c -0.691306,1.369566 -1.592392,3.013516 -2.375,4.226562 l -0.820313,-0.664062 c 0.704349,-1.004346 1.733713,-2.725933 2.490235,-4.212891 z"
       transform="scale(0.26458333)" />
  </g>
  <g
     id="ime-chewing-libpinyin">
    <rect
       style="fill:none;stroke-width:0.132292;stroke-linejoin:round"
       id="rect6743"
       width="5.8208332"
       height="5.8208332"
       x="23.283333"
       y="5.8208332" />
    <path
       id="rect38261-3"
       class="ColorScheme-Text"
       style="fill:currentColor;fill-opacity:1;stroke-width:0.500001;stroke-linejoin:round"
       d="m 94,25 c -1.662002,0 -3,1.338 -3,3 v 10 c 0,1.661998 1.337998,3 3,3 h 10 c 1.662,0 3,-1.337998 3,-3 V 28 c 0,-1.662 -1.338,-3 -3,-3 z m 7.55859,2 h 0.92969 v 2.09375 h 2.21094 v 0.890625 h -2.21094 v 2.080078 H 105 v 0.876953 h -6.242188 v -0.876953 h 2.800778 v -2.080078 h -1.45312 c -0.18321,0.575791 -0.391414,1.099407 -0.626954,1.53125 -0.183209,-0.130864 -0.603709,-0.353701 -0.826172,-0.445313 0.549622,-0.902945 0.917567,-2.290211 1.126953,-3.625 l 0.916013,0.15625 c -0.0916,0.497274 -0.19728,1.008 -0.32812,1.492188 h 1.1914 z M 93,27.5625 h 5.404297 v 0.837891 h -1.583985 v 1.701171 h 1.453126 v 8.728516 h -0.785157 v -0.759766 h -3.49414 V 39 h -0.771485 v -8.898438 h 1.414063 V 28.400391 H 93 Z m 2.341797,0.837891 v 1.701171 h 0.759765 v -1.701171 z m -1.347656,2.539062 v 3.048828 c 0.693566,-0.628135 0.798828,-1.414051 0.798828,-2.068359 v -0.980469 z m 1.361328,0 v 0.980469 c 0,0.78517 -0.183384,1.793347 -1.007813,2.5 -0.0785,-0.09161 -0.235745,-0.235934 -0.353515,-0.314453 v 3.167969 h 3.49414 v -3.521485 h -0.0918 -0.640625 c -0.523442,0 -0.679687,-0.117958 -0.679687,-0.746094 v -2.066406 z m 1.283203,0 v 2.054688 c 0,0.157035 0.02596,0.18164 0.169922,0.18164 h 0.484375 c 0.130885,0 0.169234,-0.01291 0.195312,-0.03906 v -2.197266 z m 2.578125,3.140625 h 5.351563 v 4.894531 h -0.95508 v -0.589843 h -3.49414 V 39 h -0.902343 z m 0.902343,0.888672 v 2.525391 h 3.49414 V 34.96875 Z m -5.574218,0.197266 h 2.419922 V 35.9375 h -2.419922 z"
       transform="scale(0.26458333)" />
  </g>
  <g
     id="ime-googlepinyin">
    <rect
       style="fill:none;stroke-width:0.132292;stroke-linejoin:round"
       id="rect6748"
       width="5.8208332"
       height="5.8208332"
       x="0"
       y="11.641666" />
    <path
       id="rect105870"
       class="ColorScheme-Text"
       style="fill:currentColor;fill-opacity:1;stroke-width:0.132292;stroke-linejoin:round"
       d="m 1.5875,12.435417 c -0.4397375,0 -0.79375,0.354012 -0.79375,0.79375 V 15.875 c 0,0.439737 0.3540125,0.79375 0.79375,0.79375 h 2.6458333 c 0.4397375,0 0.79375,-0.354013 0.79375,-0.79375 v -2.645833 c 0,-0.439738 -0.3540125,-0.79375 -0.79375,-0.79375 z m 0,0.264583 H 4.2333333 C 4.5264916,12.7 4.7625,12.936008 4.7625,13.229167 V 15.875 c 0,0.293158 -0.2360084,0.529166 -0.5291667,0.529166 H 1.5875 c -0.2931583,0 -0.5291667,-0.236008 -0.5291667,-0.529166 V 13.229167 C 1.0583333,12.936008 1.2943417,12.7 1.5875,12.7 Z m 1.3058634,0.264583 c -0.2858064,0 -0.5490857,0.06908 -0.7896158,0.207739 -0.2405302,0.138659 -0.4316034,0.329732 -0.5730917,0.573092 -0.1414883,0.24336 -0.2118734,0.512374 -0.2118734,0.806669 0,0.294296 0.070385,0.563309 0.2118734,0.806669 0.1414883,0.24336 0.3325615,0.434434 0.5730917,0.573092 0.2405301,0.138659 0.5038094,0.207739 0.7896158,0.207739 0.4640814,0 0.8360641,-0.151451 1.116211,-0.454236 0.1301689,-0.132999 0.2253117,-0.287058 0.2847371,-0.462504 0.059425,-0.178275 0.088883,-0.361005 0.088883,-0.54777 0,-0.06791 -0.00704,-0.141425 -0.021188,-0.220658 H 2.9021484 v 0.33538 h 1.1244792 c -0.011319,0.135828 -0.039474,0.26043 -0.084749,0.37362 -0.045276,0.110361 -0.10471,0.204987 -0.178284,0.284221 -0.099042,0.104699 -0.2179087,0.189678 -0.3565673,0.254764 -0.1358287,0.06225 -0.3057864,0.09354 -0.5095296,0.09354 -0.2122325,0 -0.4116484,-0.05109 -0.5984131,-0.152962 C 2.1123199,15.538271 1.9626902,15.392555 1.8494995,15.20579 1.7391386,15.016196 1.6836181,14.798273 1.6836181,14.552083 c 0,-0.246189 0.055521,-0.462808 0.1658814,-0.649573 0.1131907,-0.189594 0.261516,-0.335311 0.4454508,-0.437182 0.1867646,-0.104701 0.387485,-0.157097 0.6025472,-0.157097 0.1726158,0 0.3342305,0.03258 0.4842082,0.09767 0.1499775,0.06226 0.2727576,0.152968 0.3689697,0.271818 L 4.0095744,13.41882 C 3.8822349,13.274501 3.7198326,13.162673 3.5217489,13.083439 3.326495,13.004206 3.116915,12.964583 2.8933634,12.964583 Z" />
  </g>
  <g
     id="ime-sunpinyin"
     transform="matrix(0.26458333,0,0,0.26458333,5.8208332,11.641666)">
    <path
       class="ColorScheme-Text"
       d="m 11,1.5137 c -0.25562,0 -0.51116,0.099053 -0.70703,0.29492 l -2.1914,2.1914 h -3.1016 c -0.554,0 -1,0.446 -1,1 v 3.0996 l -2.1934,2.1934 c -0.39174,0.39174 -0.39174,1.0223 0,1.4141 l 2.1934,2.1934 v 3.0996 c 0,0.554 0.446,1 1,1 h 3.0996 l 2.1934,2.1934 c 0.39174,0.39174 1.0223,0.39174 1.4141,0 l 2.1934,-2.1934 h 3.0996 c 0.554,0 1,-0.446 1,-1 v -3.1016 l 2.1914,-2.1914 c 0.39174,-0.39174 0.39174,-1.0223 0,-1.4141 l -2.1914,-2.1914 v -3.1016 c 0,-0.554 -0.446,-1 -1,-1 h -3.1016 l -2.1914,-2.1914 C 11.5112,1.61275 11.25566,1.5137 11.00004,1.5137 Z m -0.09961,3.1875 1.5,2 -0.39844,0.29883 h 1.9961 l -0.39844,-0.29883 1.5,-2 0.80078,0.59961 -1.2754,1.6992 h 2.375 v 1 h -2 v 3 h 2 v 1 h -2 v 5 h -1 v -5 h -2.041 c -0.09614,1.1187 -0.47709,2.0294 -0.92578,2.8066 -0.62072,1.075 -1.6914,2.0586 -1.6914,2.0586 L 8.65822,16.13669 c 0,0 1.0125,-0.96878 1.5098,-1.8301 0.40132,-0.69512 0.70429,-1.4116 0.79297,-2.3066 h -1.9609 v -0.94141 l -1,0.5 v 5.4414 h -3 v -1 h 2 v -3.9414 l -1.7773,0.88867 -0.44531,-0.89453 2.2227,-1.1113 v -2.9414 h -2 v -1 h 2 v -2 h 1 v 2 h 1 v 1 h -1 v 2.4414 l 0.77734,-0.38867 0.44531,0.89453 -0.10547,0.05273 h 1.8828 v -3 h -1 v -1 h 1.375 L 10.09976,5.30081 10.90054,4.7012 Z M 11.99999,8 v 3 h 2 V 8 Z"
       fill="currentColor"
       id="path40" />
    <rect
       width="22"
       height="22"
       fill="none"
       id="rect42"
       x="0"
       y="0" />
  </g>
  <g
     id="ime-hangul"
     transform="translate(0,5.8208336)">
    <rect
       style="fill:none;stroke-width:0.132292;stroke-linejoin:round"
       id="rect6869"
       width="5.8208332"
       height="5.8208332"
       x="-6.1767578e-09"
       y="17.4625" />
    <path
       id="rect6976"
       class="ColorScheme-Text"
       style="fill:currentColor;fill-opacity:1;stroke-width:0.500001;stroke-linejoin:round"
       d="m 6,69 c -1.662,0 -3,1.337998 -3,3 v 10 c 0,1.662002 1.338,3 3,3 h 10 c 1.662,0 3,-1.337998 3,-3 V 72 c 0,-1.662002 -1.338,-3 -3,-3 z m 0,1 h 10 c 1.108,0 2,0.891997 2,2 v 10 c 0,1.107999 -0.892,2 -2,2 H 6 C 4.8920001,84 4,83.107999 4,82 V 72 c 0,-1.108003 0.8920001,-2 2,-2 z m 7.556641,1 v 12 h 1.103515 v -6.212891 h 1.910156 V 75.871094 H 14.660156 V 71 Z m -7.5000004,1.287109 v 0.916016 H 10.464844 C 10.212632,76.043833 8.5530989,78.341034 5.5,79.880859 l 0.6113281,0.84961 c 3.8893829,-1.938051 5.4550779,-5.031852 5.4550779,-8.44336 z"
       transform="scale(0.26458333)" />
  </g>
  <g
     id="ime-anthy">
    <rect
       style="fill:none;stroke-width:0.132292;stroke-linejoin:round"
       id="rect11234"
       width="5.8208332"
       height="5.8208332"
       x="-6.1767578e-09"
       y="17.4625" />
    <path
       id="rect11385"
       class="ColorScheme-Text"
       style="fill:currentColor;fill-opacity:1;stroke-width:0.500001;stroke-linejoin:round"
       d="m 6,69 c -1.662,0 -3,1.337998 -3,3 v 10 c 0,1.662002 1.338,3 3,3 h 10 c 1.662,0 3,-1.337998 3,-3 V 72 c 0,-1.662002 -1.338,-3 -3,-3 z m 0,1 h 10 c 1.108,0 2,0.892001 2,2 v 10 c 0,1.107999 -0.892,2 -2,2 H 6 C 4.8920001,84 4,83.107999 4,82 V 72 c 0,-1.107999 0.8920001,-2 2,-2 z m 3.2675781,1 c 0.014211,0.170608 -0.015086,0.425717 -0.029297,0.681641 L 9.125,72.777344 8.1582031,72.791016 c -0.6113748,0 -1.8480724,-0.09829 -2.3457031,-0.183594 l 0.027344,1.066406 c 0.5829376,0.04263 1.6933137,0.09961 2.3046874,0.09961 l 0.8671876,-0.01563 c -0.056867,0.668247 -0.1278129,1.378942 -0.15625,2.089844 -1.9620858,0.909952 -3.5546875,2.773301 -3.5546876,4.607422 0,1.208534 0.7393458,1.791016 1.6777344,1.791016 0.7819899,0 1.6340242,-0.312056 2.4160156,-0.78125 l 0.2285157,0.796875 1.0234369,-0.314453 c -0.113748,-0.355465 -0.228055,-0.738071 -0.341796,-1.150391 1.20853,-1.023696 2.359495,-2.602134 3.169921,-4.621094 1.322276,0.383887 2.048829,1.35107 2.048829,2.431641 0,1.84834 -1.592556,3.169307 -4.166016,3.439453 L 11.96875,83 c 3.29858,-0.526065 4.648438,-2.288541 4.648438,-4.335938 0,-1.563979 -1.050873,-2.872602 -2.828126,-3.341796 l 0.01367,-0.05664 c 0.07109,-0.22749 0.197896,-0.611494 0.283204,-0.810547 l -1.123047,-0.285156 c -0.01421,0.241701 -0.08516,0.612904 -0.15625,0.826172 l -0.04297,0.140625 -0.525391,-0.01367 c -0.725119,0 -1.592462,0.127979 -2.3886716,0.355469 0.042656,-0.597154 0.085704,-1.193545 0.1425781,-1.748047 1.7488165,-0.0853 3.6399195,-0.2851 5.1328125,-0.541016 l -0.01367,-1.052734 c -1.45024,0.341359 -3.1865,0.52602 -4.992187,0.611328 l 0.171875,-1.080078 c 0.04265,-0.19903 0.09883,-0.453838 0.169922,-0.638672 z m 2.9570309,5.019531 h 0.242188 C 11.86964,77.611948 11.000889,78.76247 10.0625,79.658203 9.9061032,78.833559 9.8066406,77.966592 9.8066406,77.056641 l 0.015625,-0.582032 C 10.476297,76.232901 11.300439,76.019531 12.224609,76.019531 Z M 8.8125,76.914062 v 0.25586 c 0,1.066352 0.1407949,2.219038 0.3398438,3.228516 -0.7251198,0.51185 -1.4064344,0.753906 -1.9609376,0.753906 -0.5402838,0 -0.8105468,-0.299881 -0.8105468,-0.882813 0,-1.165878 1.0524918,-2.573477 2.4316406,-3.355469 z"
       transform="scale(0.26458333)" />
  </g>
  <g
     id="ime-libkkc">
    <rect
       style="fill:none;stroke-width:0.132292;stroke-linejoin:round"
       id="rect910"
       width="5.8208332"
       height="5.8208332"
       x="5.8208332"
       y="17.4625" />
    <path
       id="rect1035"
       class="ColorScheme-Text"
       style="fill:currentColor;stroke-width:0.132292;stroke-linejoin:round"
       d="m 7.4083333,18.25625 c -0.4397374,0 -0.7937499,0.354012 -0.7937499,0.79375 v 2.645833 c 0,0.439738 0.3540125,0.79375 0.7937499,0.79375 h 2.6458337 c 0.439737,0 0.79375,-0.354012 0.79375,-0.79375 V 19.05 c 0,-0.439738 -0.354013,-0.79375 -0.79375,-0.79375 z m 0,0.264583 h 2.6458337 c 0.293158,0 0.529166,0.236008 0.529166,0.529167 v 2.645833 c 0,0.293158 -0.236008,0.529167 -0.529166,0.529167 H 7.4083333 c -0.2931583,0 -0.5291666,-0.236009 -0.5291666,-0.529167 V 19.05 c 0,-0.293159 0.2360083,-0.529167 0.5291666,-0.529167 z M 7.14375,19.443257 v 1.899626 H 7.3628581 V 20.864359 L 7.47913,20.731034 7.8424154,21.342883 H 8.0971803 L 7.6160725,20.564119 8.0418863,20.00498 H 7.7793702 l -0.4165121,0.575159 v -1.136882 z m 1.1415324,0 v 1.899626 h 0.219108 v -0.478524 l 0.116272,-0.133325 0.3632853,0.611849 H 9.2392294 L 8.7576049,20.564119 9.1834187,20.00498 H 8.9209025 l -0.4165121,0.575159 v -1.136882 z m 1.5642454,0.536919 c -0.158162,0.0032 -0.2794113,0.05588 -0.363285,0.158129 -0.08658,0.10472 -0.129708,0.258418 -0.129708,0.460438 v 0.14676 c 0,0.206142 0.043128,0.361919 0.129708,0.466639 0.087404,0.103896 0.2140836,0.155546 0.3798215,0.155546 0.1245097,0 0.2294717,-0.04198 0.3152267,-0.126091 0.08658,-0.08493 0.132512,-0.191762 0.137459,-0.320394 h -0.206706 c -0.0041,0.08328 -0.02813,0.147917 -0.07183,0.19327 -0.043702,0.04453 -0.1015877,0.06666 -0.1741497,0.06666 -0.1005967,0 -0.1741744,-0.03253 -0.221175,-0.09767 -0.046176,-0.06514 -0.069247,-0.176337 -0.069247,-0.333829 v -0.171049 c 0.00164,-0.145947 0.025863,-0.2507 0.072864,-0.314193 0.047,-0.06431 0.1192252,-0.09612 0.2165241,-0.09612 0.075036,0 0.1331304,0.02442 0.1751836,0.0739 0.04288,0.04947 0.06688,0.123778 0.07183,0.222725 h 0.206706 c -0.0049,-0.150071 -0.04787,-0.268437 -0.128674,-0.355017 -0.07998,-0.08658 -0.188167,-0.129707 -0.3250456,-0.129707 -0.00518,0 -0.010401,-1.04e-4 -0.015502,0 z" />
  </g>
  <g
     id="ime-libskk">
    <rect
       style="fill:none;stroke-width:0.132292;stroke-linejoin:round"
       id="rect11997"
       width="5.8208332"
       height="5.8208332"
       x="11.641666"
       y="17.4625" />
    <path
       id="rect12119"
       class="ColorScheme-Text"
       style="fill:currentColor;stroke-width:0.500001;stroke-linejoin:round"
       d="m 50,69 c -1.662,0 -3,1.338 -3,3 v 10 c 0,1.662 1.338,3 3,3 h 10 c 1.662,0 3,-1.338 3,-3 V 72 c 0,-1.662 -1.338,-3 -3,-3 z m 0,1 h 10 c 1.108,0 2,0.892 2,2 v 10 c 0,1.108 -0.892,2 -2,2 H 50 c -1.108,0 -2,-0.892 -2,-2 V 72 c 0,-1.108 0.892,-2 2,-2 z m 3.361328,3.486328 v 6.925781 h 0.796875 v -1.74414 l 0.423828,-0.488281 1.326172,2.232421 h 0.929688 l -1.753907,-2.839843 1.550782,-2.039063 h -0.957032 l -1.519531,2.097656 v -4.144531 z m 4.16211,0 v 6.925781 h 0.798828 v -1.74414 l 0.423828,-0.488281 1.324218,2.232421 H 61 l -1.753906,-2.839843 1.550781,-2.039063 h -0.955078 l -1.519531,2.097656 v -4.144531 z m -6.832032,1.957031 c -0.450958,0 -0.82166,0.131923 -1.113281,0.396485 -0.288612,0.261556 -0.433594,0.591438 -0.433594,0.988281 0,0.222473 0.04368,0.413829 0.13086,0.576172 0.08719,0.159347 0.218216,0.303426 0.392578,0.429687 0.177375,0.126259 0.480242,0.277693 0.910156,0.455078 0.369774,0.16535 0.618762,0.308378 0.748047,0.431641 0.129285,0.123263 0.195312,0.271996 0.195312,0.443359 0,0.201419 -0.0707,0.362158 -0.208984,0.482422 -0.138295,0.117241 -0.338954,0.175782 -0.603516,0.175782 -0.28261,0 -0.501881,-0.07715 -0.658203,-0.230469 -0.156271,-0.153325 -0.238976,-0.364189 -0.248047,-0.634766 H 49 c 0,0.447952 0.156985,0.817757 0.472656,1.109375 0.315671,0.291621 0.728252,0.435547 1.236328,0.435547 0.490041,0 0.880255,-0.124415 1.171875,-0.376953 0.291619,-0.255541 0.4375,-0.59563 0.4375,-1.019531 0,-0.339722 -0.10687,-0.620379 -0.320312,-0.839844 -0.213453,-0.222481 -0.614772,-0.448204 -1.207031,-0.679687 -0.372778,-0.162356 -0.60976,-0.293379 -0.708985,-0.392579 -0.0962,-0.09921 -0.144531,-0.230234 -0.144531,-0.392578 0,-0.204424 0.06694,-0.366063 0.199219,-0.486328 0.135279,-0.123263 0.32018,-0.185547 0.554687,-0.185547 0.228498,0 0.415199,0.07803 0.5625,0.234375 0.147301,0.153326 0.222657,0.339129 0.222656,0.558594 h 0.792969 c 0,-0.432917 -0.144981,-0.787865 -0.433593,-1.064453 -0.288613,-0.276588 -0.669523,-0.414063 -1.144532,-0.414063 z"
       transform="scale(0.26458333)" />
  </g>
  <g
     id="ime-unikey"
     transform="matrix(0.26458333,0,0,0.26458333,-5.3823242e-8,-15.875)">
    <rect
       x="-2.4710001e-09"
       y="170"
       width="22"
       height="22"
       fill="none"
       id="rect100" />
    <path
       class="ColorScheme-Text"
       transform="translate(0,48)"
       d="m 4,126 v 8 h 3 v 7 h 8 v -7 h 3 v -8 h -7 z m 1,1 h 6 v 6 H 5 Z m 7,0 h 5 v 6 h -5 z m -6,1 v 1.5 c 0,0.80556 0.12264,1.4228 0.48438,1.875 0.36174,0.4522 0.93229,0.625 1.5156,0.625 0.58331,0 1.1539,-0.17283 1.5156,-0.625 0.3617,-0.45217 0.48438,-1.0694 0.48438,-1.875 V 128 h -1 v 1.5 c 0,0.69444 -0.12736,1.0772 -0.26562,1.25 C 8.59608,130.9228 8.41663,131 7.99996,131 7.58329,131 7.40385,130.92283 7.26558,130.75 7.12731,130.57717 6.99996,130.19444 6.99996,129.5 V 128 Z m 8,0 v 4 h 1 v -4 z m -6,6 h 6 v 6 H 8 Z m 2,1 H 9 v 4 h 1 v -2.498 L 12,139 h 1 v -4 h -1 v 2.498 z"
       fill="currentColor"
       id="path102" />
  </g>
  <g
     id="ime-fullwidth"
     transform="matrix(0.26458333,0,0,0.26458333,40.744727,-22.224999)">
    <rect
       x="-2.4710001e-09"
       y="170"
       width="22"
       height="22"
       fill="none"
       id="rect125" />
    <circle
       class="ColorScheme-Text"
       cx="11"
       cy="181"
       fill="currentColor"
       id="ellipse127"
       r="8" />
  </g>
  <g
     id="ime-halfwidth"
     transform="matrix(0.26458333,0,0,0.26458333,46.565609,-22.224999)">
    <rect
       x="-2.4710001e-09"
       y="170"
       width="22"
       height="22"
       fill="none"
       id="rect130" />
    <path
       class="ColorScheme-Text"
       transform="translate(-154,82)"
       d="m 167.57,91.432 a 8,8 0 0 1 0.43359,2.5684 8,8 0 0 1 -8,8 8,8 0 0 1 -2.5664,-0.43164 8,8 0 0 0 7.5664,5.4316 8,8 0 0 0 8,-8 8,8 0 0 0 -5.4336,-7.5684 z"
       fill="currentColor"
       id="path132" />
  </g>
  <g
     id="ime-punctuation-halfwidth"
     transform="matrix(0.26458333,0,0,0.26458333,46.565609,-16.404166)">
    <rect
       x="-2.4710001e-09"
       y="170"
       width="22"
       height="22"
       fill="none"
       id="rect135" />
    <circle
       class="ColorScheme-Text"
       cx="7.5"
       cy="180.5"
       r="1.5"
       fill="currentColor"
       id="circle137" />
    <path
       class="ColorScheme-Text"
       d="m 14.5,179 a 1.5,1.5 0 0 0 -1.5,1.5 1.5,1.5 0 0 0 1.5,1.5 1.5,1.5 0 0 0 0.04688,-0.002 c -0.53325,0.93921 -1.3477,1.6016 -1.3477,1.6016 l 0.60156,0.80078 c 0,0 1.9673,-1.4264 2.1621,-3.5723 a 1.5,1.5 0 0 0 0.03711,-0.32808 1.5,1.5 0 0 0 -1.5,-1.5 z"
       fill="currentColor"
       id="path139" />
  </g>
  <g
     id="ime-punctuation-fullwidth"
     transform="matrix(0.26458333,0,0,0.26458333,40.744727,-16.404166)">
    <path
       class="ColorScheme-Text"
       d="m 7.5,178 c -1.3748,0 -2.5,1.1252 -2.5,2.5 0,1.3748 1.1252,2.5 2.5,2.5 1.3748,0 2.5,-1.1252 2.5,-2.5 0,-1.3748 -1.1252,-2.5 -2.5,-2.5 z m 0,1 C 8.33435,179 9,179.66565 9,180.5 9,181.33435 8.33435,182 7.5,182 6.66565,182 6,181.33435 6,180.5 6,179.66565 6.66565,179 7.5,179 Z"
       fill="currentColor"
       id="path142" />
    <rect
       x="-2.4710001e-09"
       y="170"
       width="22"
       height="22"
       fill="none"
       id="rect144" />
    <path
       class="ColorScheme-Text"
       transform="translate(-198,82)"
       d="m 212.5,96 c -1.3748,0 -2.5,1.1252 -2.5,2.5 0,1.3748 1.1252,2.5 2.5,2.5 0.36519,0 0.70988,-0.0842 1.0234,-0.22656 -0.34093,0.6932 -0.81988,1.1673 -1.3066,1.502 -0.89509,0.61537 -1.7793,0.72852 -1.7793,0.72852 l 0.125,0.99218 c 0,0 1.1158,-0.13685 2.2207,-0.89648 1.1049,-0.75963 2.2168,-2.2015 2.2168,-4.5996 0,-1.3748 -1.1252,-2.5 -2.5,-2.5 z m 0,1 c 0.83435,0 1.5,0.66565 1.5,1.5 0,0.83435 -0.66565,1.5 -1.5,1.5 -0.83435,0 -1.5,-0.66565 -1.5,-1.5 0,-0.83435 0.66565,-1.5 1.5,-1.5 z"
       fill="currentColor"
       id="path146" />
  </g>
  <g
     id="ime-chinese-simplified"
     transform="matrix(0.26458333,0,0,0.26458333,40.744727,-10.583333)">
    <rect
       x="-2.4710001e-09"
       y="170"
       width="22"
       height="22"
       fill="none"
       id="rect149" />
    <path
       class="ColorScheme-Text"
       transform="translate(-132,60)"
       d="m 138.81,113.41 c -0.50782,1.3672 -1.3477,2.5976 -2.5195,3.6914 l 0.99609,0.76172 c 0.19531,-0.0391 0.74219,-0.72266 1.6406,-2.0508 h 0.76172 c 0.42969,0.625 0.80078,1.2695 1.1133,1.9336 l 1.1719,-0.64453 -0.9375,-1.2891 h 2.0508 v -1.1133 h -3.6328 l 0.46875,-0.9375 z m 6.0352,0 c -0.46875,1.3281 -1.2695,2.5391 -2.4023,3.6328 l 0.99609,0.76172 c 0.66407,-0.625 1.1719,-1.2891 1.5234,-1.9922 h 0.99609 c 0.42969,0.58594 0.80079,1.2109 1.1133,1.875 l 1.0547,-0.64453 c -0.27343,-0.42968 -0.5664,-0.83984 -0.8789,-1.2305 h 2.4609 v -1.1133 h -4.1602 c 0.15625,-0.3125 0.29297,-0.625 0.41015,-0.9375 z m -5.4492,4.1016 -0.99609,0.58594 c 0.54688,0.54687 0.95703,1.0938 1.2305,1.6406 l 1.1133,-0.58594 c -0.35156,-0.58594 -0.80078,-1.1328 -1.3477,-1.6406 z m 1.9922,0.52735 v 0.99609 h 6.3867 v 6.0352 c 0,0.54687 -0.13672,0.82031 -0.41016,0.82031 -0.39062,0 -0.89843,-0.0195 -1.5234,-0.0586 l 0.29297,1.1133 c 0.54687,0.0391 1.0156,0.0586 1.4062,0.0586 0.46875,0 0.82031,-0.13672 1.0547,-0.41016 0.23438,-0.27343 0.35157,-0.66406 0.35157,-1.1719 v -7.3828 h -7.5586 z m -3.9844,1.582 v 7.3828 h 1.1719 v -7.3828 z m 2.8711,0.64453 v 5.0391 h 5.3906 v -5.0391 z m 1.1133,0.99609 h 3.1641 v 0.9961 h -3.1641 z m 0,1.9336 h 3.1641 v 1.1133 h -3.1641 z m -6.3887,4.8086 v 1 h 16 v -1 z"
       fill="currentColor"
       id="path151" />
  </g>
  <g
     id="ime-chinese-traditional"
     transform="matrix(0.26458333,0,0,0.26458333,46.565609,-10.583333)">
    <rect
       x="-2.4710001e-09"
       y="170"
       width="22"
       height="22"
       fill="none"
       id="rect154" />
    <path
       class="ColorScheme-Text"
       transform="translate(-154,60)"
       d="m 160.02,113.46 c -0.3125,0.70313 -0.89844,1.3867 -1.7578,2.0508 l 0.82031,0.64454 c 0.39063,-0.27344 0.76172,-0.64453 1.1133,-1.1133 h 5.4492 v -0.87891 h -4.8633 c 0.0391,-0.11719 0.0977,-0.2539 0.17578,-0.41016 z m 7.1484,0 c -0.39063,1.25 -1.0156,2.3633 -1.875,3.3398 l 0.70312,0.76172 0.58594,-0.70313 c 0.35156,0.58594 0.76172,1.0938 1.2305,1.5234 -0.625,0.50781 -1.3672,0.95704 -2.2266,1.3477 l 0.82031,0.8789 c 0.85938,-0.46875 1.6016,-0.95703 2.2266,-1.4648 0.70313,0.54687 1.4844,1.0352 2.3438,1.4648 l 0.76172,-0.9375 c -0.9375,-0.39063 -1.7383,-0.82031 -2.4023,-1.2891 0.66406,-0.74219 1.1328,-1.582 1.4062,-2.5195 h 0.82031 v -0.9961 h -3.8672 l 0.46875,-1.1133 z m -7.2656,2.2852 -0.35156,1.6992 h -1.1719 v 0.9375 h 0.99609 l -0.35156,1.7578 h 4.3945 v 0.35156 h 0.99609 l 0.0586,-0.35156 h 0.52734 v -0.87891 h -0.46875 l 0.11719,-0.8789 h 0.9375 v -0.9375 h -0.82032 l 0.23438,-1.6992 z m 7.3242,0.11719 h 2.4024 c -0.19532,0.66406 -0.54688,1.2891 -1.0547,1.875 -0.50781,-0.50782 -0.97656,-1.0938 -1.4062,-1.7578 0.0391,-0.0391 0.0586,-0.0781 0.0586,-0.11719 z m -6.4453,0.70312 h 0.76172 c 0.19531,0.23438 0.39062,0.52734 0.58594,0.87891 h -1.5234 z m 1.6992,0 h 1.4648 l -0.11719,0.87891 h -0.76171 z m -1.9922,1.8164 h 0.76172 c 0.19531,0.23437 0.41016,0.52735 0.64453,0.8789 h -1.582 z m 1.7578,0 h 1.4648 l -0.17578,0.8789 h -0.76172 c -0.15625,-0.3125 -0.33203,-0.60547 -0.52735,-0.8789 z m 5.6836,1.9336 c -1.25,0.74219 -2.1094,1.1523 -2.5781,1.2305 -0.70312,0.11719 -1.9531,0.19531 -3.75,0.23438 0.625,-0.19532 1.25,-0.48828 1.875,-0.87891 l -0.76172,-0.52734 c -0.78125,0.54687 -1.7578,0.97656 -2.9297,1.2891 l 0.11718,0.82031 c 1.1719,0 2.3633,-0.0391 3.5742,-0.11719 -1.25,0.46876 -2.7734,0.87891 -4.5703,1.2305 l 0.17578,0.9375 c 1.7578,0 3.5352,-0.0586 5.332,-0.17578 v 1.2305 c 0,0.3125 -0.11718,0.46875 -0.35156,0.46875 -0.42969,0 -0.85937,-0.0586 -1.2891,-0.17578 l 0.17578,1.0547 c 0.35156,0.0781 0.72265,0.11718 1.1133,0.11718 0.625,0 1.0352,-0.0977 1.2305,-0.29297 0.19531,-0.1953 0.29297,-0.52734 0.29297,-0.99609 v -1.5234 c 1.3281,-0.11718 2.6562,-0.27343 3.9844,-0.46875 0.3125,0.3125 0.58594,0.64453 0.82031,0.9961 l 1.1133,-0.52735 c -0.78125,-0.9375 -1.7188,-1.7969 -2.8125,-2.5781 l -1.0547,0.46875 c 0.42969,0.27343 0.82031,0.58593 1.1719,0.9375 -1.5625,0.3125 -3.9648,0.52734 -7.207,0.64453 2.6172,-0.58594 5.0391,-1.5039 7.2656,-2.7539 z m -0.87891,4.2774 -0.46875,0.9375 c 1.2891,0.3125 2.5781,0.74219 3.8672,1.2891 l 0.46875,-0.9961 c -1.2109,-0.46874 -2.5,-0.8789 -3.8672,-1.2305 z m -4.6875,0.11718 c -1.1328,0.46876 -2.3828,0.83985 -3.75,1.1133 l 0.70313,0.9961 c 1.4844,-0.39063 2.7539,-0.89844 3.8086,-1.5234 z m -5.3633,3.2852 v 1 h 16 v -1 z"
       fill="currentColor"
       id="path156" />
  </g>
  <g
     id="ime-remind-on"
     transform="matrix(0.26458333,0,0,0.26458333,-0.00105687,-0.52916667)">
    <path
       class="ColorScheme-Text"
       d="m 209,91 c -3.3078,0 -6,2.6922 -6,6 a 0.50005,0.50005 0 0 0 0.002,0.05664 c 0.0144,2.3215 0.86034,3.5093 1.6191,4.3945 0.76527,0.89287 1.3789,1.4417 1.3789,3.0488 v 2.5 h 2 v 1 h 2 v -1 h 2 v -2.5 c 0,-1.6071 0.63385,-2.304 1.3906,-3.25 0.74894,-0.93616 1.5881,-2.1039 1.6055,-4.1875 a 0.50005,0.50005 0 0 0 0.004,-0.0625 c 0,-3.3078 -2.6922,-6 -6,-6 z m 0,1 c 2.7674,0 5,2.2327 5,5 0,1.875 -0.64741,2.696 -1.3906,3.625 -0.66238,0.82796 -1.3366,1.8434 -1.4942,3.375 h -4.2344 c -0.16424,-1.5039 -0.84931,-2.4398 -1.502,-3.2012 -0.73469,-0.85714 -1.3789,-1.6599 -1.3789,-3.7988 0,-2.7673 2.2326,-5 5,-5 z m -1.8535,5.1465 -1.5,1.5 0.70704,0.70703 1.1465,-1.1465 1.1465,1.1465 h 0.70704 l 1.1465,-1.1465 1.1465,1.1465 0.70704,-0.70703 -1.5,-1.5 h -0.70704 l -1.1465,1.1465 -1.1465,-1.1465 z"
       fill="currentColor"
       id="path159" />
    <rect
       x="198"
       y="88"
       width="22"
       height="22"
       fill="none"
       id="rect161" />
    <circle
       cx="202.5"
       cy="92.5"
       fill="#11d116"
       id="ellipse163"
       r="2.5" />
  </g>
  <g
     id="ime-remind-off"
     transform="matrix(0.26458333,0,0,0.26458333,5.819776,-0.52916629)">
    <rect
       x="198"
       y="88"
       width="22"
       height="22"
       fill="none"
       id="rect166" />
    <path
       class="ColorScheme-Text"
       d="m 209,91 c -3.3078,0 -6,2.6922 -6,6 a 0.50005,0.50005 0 0 0 0.002,0.05664 c 0.0144,2.3215 0.86034,3.5093 1.6191,4.3945 0.76527,0.89287 1.3789,1.4417 1.3789,3.0488 v 2.5 h 2 v 1 h 2 v -1 h 2 v -2.5 c 0,-1.6071 0.63385,-2.304 1.3906,-3.25 0.74894,-0.93616 1.5881,-2.1039 1.6055,-4.1875 a 0.50005,0.50005 0 0 0 0.004,-0.0625 c 0,-3.3078 -2.6922,-6 -6,-6 z m 0,1 c 2.7674,0 5,2.2327 5,5 0,1.875 -0.64741,2.696 -1.3906,3.625 -0.66238,0.82796 -1.3366,1.8434 -1.4942,3.375 h -4.2344 c -0.16424,-1.5039 -0.84931,-2.4398 -1.502,-3.2012 -0.73469,-0.85714 -1.3789,-1.6599 -1.3789,-3.7988 0,-2.7673 2.2326,-5 5,-5 z m -1.8535,5.1465 -1.5,1.5 0.70704,0.70703 1.1465,-1.1465 1.1465,1.1465 h 0.70704 l 1.1465,-1.1465 1.1465,1.1465 0.70704,-0.70703 -1.5,-1.5 h -0.70704 l -1.1465,1.1465 -1.1465,-1.1465 z"
       fill="currentColor"
       id="path168" />
  </g>
  <g
     id="ime-handwriting-on"
     transform="matrix(0.26458333,0,0,0.26458333,-0.00105687,-0.52916667)">
    <path
       class="ColorScheme-Text"
       d="m 213.14,112.57 -3.2715,12.207 1.0703,3.7383 2.7949,-2.7031 3.2695,-12.207 -0.48242,-0.13086 z m 0.70703,1.2227 1.9316,0.51757 -0.25977,0.96875 -1.9316,-0.51953 z m -0.51758,1.9336 1.9316,0.51758 -2.4219,9.043 -1.3965,1.3516 -0.53515,-1.8691 z m -11.004,3.7266 c -0.19319,0.004 -0.40565,0.0236 -0.64454,0.0566 a 0.50078273,0.50078273 0 1 0 0.13672,0.99219 c 0.41874,-0.0578 0.71009,-0.056 0.8711,-0.0293 0.161,0.0267 0.16413,0.0574 0.15234,0.041 -0.0118,-0.0164 0.006,-0.009 -0.006,0.0918 -0.0114,0.10109 -0.0582,0.26431 -0.125,0.45117 -0.13364,0.37372 -0.35128,0.82336 -0.41015,1.3262 -0.0294,0.25141 -0.0149,0.53952 0.13281,0.80664 0.14773,0.26712 0.41956,0.46728 0.73828,0.57422 0.15253,0.0511 0.21329,0.0406 0.30859,0.0449 0.0953,0.004 0.20075,0.006 0.31641,0.006 0.23131,7e-5 0.50355,-0.003 0.75781,0.004 0.032,8.8e-4 0.0467,0.006 0.0781,0.008 -0.0907,0.0554 -0.14559,0.0982 -0.25196,0.1582 -0.53281,0.30067 -1.218,0.64435 -1.7812,1.0215 -0.28163,0.18856 -0.53612,0.38276 -0.73632,0.62109 -0.20021,0.23833 -0.36943,0.5761 -0.28711,0.94922 0.0823,0.37312 0.37008,0.63181 0.73046,0.82617 0.36039,0.19436 0.83345,0.35158 1.4805,0.49805 1.0512,0.23796 2.3603,0.16845 3.543,0.2207 1.1827,0.0523 2.1684,0.26022 2.5527,0.70313 a 0.50005,0.50005 0 1 0 0.7539,-0.65625 c -0.75608,-0.87128 -2.0159,-0.99183 -3.2617,-1.0469 -1.2458,-0.0551 -2.5498,-0.0103 -3.3672,-0.19531 -0.59572,-0.13486 -0.99936,-0.27981 -1.2266,-0.40235 -0.22724,-0.12254 -0.23579,-0.19509 -0.22851,-0.1621 0.007,0.033 -0.0185,0.0229 0.0762,-0.0898 0.0947,-0.11274 0.28674,-0.2725 0.52734,-0.43359 0.48121,-0.32219 1.1514,-0.66336 1.7168,-0.98242 0.28271,-0.15954 0.5384,-0.31224 0.75195,-0.47852 0.21356,-0.16628 0.46591,-0.33012 0.47657,-0.75195 0.006,-0.24594 -0.16427,-0.47043 -0.30469,-0.56446 -0.14042,-0.094 -0.26745,-0.13056 -0.39649,-0.16015 -0.25808,-0.0592 -0.53621,-0.0742 -0.81836,-0.082 -0.28212,-0.008 -0.56257,-0.004 -0.7832,-0.004 -0.11031,-3e-5 -0.20637,-8.4e-4 -0.27148,-0.004 -0.0275,-0.001 -0.0496,-0.005 -0.0645,-0.008 0.012,0.005 0.0131,0.007 0.0274,0.0117 -0.0504,-0.0169 -0.0476,-0.0156 -0.0274,-0.0117 -0.11428,-0.0431 -0.14247,-0.0763 -0.15429,-0.0977 -0.0131,-0.0236 -0.0302,-0.0805 -0.0156,-0.20507 0.0292,-0.24917 0.2055,-0.67516 0.35938,-1.1055 0.0769,-0.21516 0.14852,-0.43604 0.17578,-0.67774 0.0273,-0.2417 0.006,-0.53533 -0.17578,-0.78711 -0.18155,-0.25177 -0.47836,-0.39019 -0.79883,-0.44335 -0.16024,-0.0266 -0.33415,-0.0375 -0.52734,-0.0332 z"
       fill="currentColor"
       id="path171" />
    <rect
       x="198"
       y="110"
       width="22"
       height="22"
       fill="none"
       id="rect173" />
    <rect
       x="198"
       y="110"
       width="22"
       height="22"
       fill="none"
       id="rect175" />
    <circle
       cx="202.5"
       cy="114.5"
       fill="#11d116"
       id="ellipse177"
       r="2.5" />
  </g>
  <g
     id="ime-handwriting-off"
     transform="matrix(0.26458333,0,0,0.26458333,5.819776,-0.52916629)">
    <path
       class="ColorScheme-Text"
       transform="translate(-22)"
       d="m 235.14,112.57 -3.2715,12.207 1.0703,3.7383 2.7949,-2.7031 3.2695,-12.207 -0.48242,-0.13086 z m 0.70703,1.2227 1.9316,0.51757 -0.25977,0.96875 -1.9316,-0.51953 z m -0.51758,1.9336 1.9316,0.51758 -2.4219,9.043 -1.3965,1.3516 -0.53515,-1.8691 z m -11.004,3.7266 c -0.19319,0.004 -0.40565,0.0236 -0.64454,0.0566 a 0.50078,0.50078 0 0 0 0.11524,0.99414 0.50078,0.50078 0 0 0 0.0215,-0.002 c 0.41874,-0.0578 0.71009,-0.056 0.8711,-0.0293 0.161,0.0267 0.16413,0.0574 0.15234,0.041 -0.0118,-0.0164 0.006,-0.009 -0.006,0.0918 -0.0114,0.10109 -0.0582,0.26431 -0.125,0.45117 -0.13364,0.37372 -0.35128,0.82336 -0.41015,1.3262 -0.0294,0.25141 -0.0149,0.53952 0.13281,0.80664 0.14773,0.26712 0.41956,0.46728 0.73828,0.57422 0.15253,0.0511 0.21329,0.0406 0.30859,0.0449 0.0953,0.004 0.20075,0.006 0.31641,0.006 0.23131,7e-5 0.50355,-0.003 0.75781,0.004 0.032,8.8e-4 0.0467,0.006 0.0781,0.008 -0.0907,0.0554 -0.14559,0.0982 -0.25196,0.1582 -0.53281,0.30067 -1.218,0.64435 -1.7812,1.0215 -0.28163,0.18856 -0.53612,0.38276 -0.73632,0.62109 -0.20021,0.23833 -0.36943,0.5761 -0.28711,0.94922 0.0823,0.37312 0.37008,0.63181 0.73046,0.82617 0.36039,0.19436 0.83345,0.35158 1.4805,0.49805 1.0512,0.23796 2.3603,0.16845 3.543,0.2207 1.1827,0.0523 2.1684,0.26022 2.5527,0.70313 a 0.50005,0.50005 0 1 0 0.7539,-0.65625 c -0.75608,-0.87128 -2.0159,-0.99183 -3.2617,-1.0469 -1.2458,-0.0551 -2.5498,-0.0103 -3.3672,-0.19531 -0.59572,-0.13486 -0.99936,-0.27981 -1.2266,-0.40235 -0.22724,-0.12254 -0.23579,-0.19509 -0.22851,-0.1621 0.007,0.033 -0.0185,0.0229 0.0762,-0.0898 0.0947,-0.11274 0.28674,-0.2725 0.52734,-0.43359 0.48121,-0.32219 1.1514,-0.66336 1.7168,-0.98242 0.28271,-0.15954 0.5384,-0.31224 0.75195,-0.47852 0.21356,-0.16628 0.46591,-0.33012 0.47657,-0.75195 0.006,-0.24594 -0.16427,-0.47043 -0.30469,-0.56446 -0.14042,-0.094 -0.26745,-0.13056 -0.39649,-0.16015 -0.25808,-0.0592 -0.53621,-0.0742 -0.81836,-0.082 -0.28212,-0.008 -0.56257,-0.004 -0.7832,-0.004 -0.11031,-3e-5 -0.20637,-8.4e-4 -0.27148,-0.004 -0.0275,-0.001 -0.0496,-0.005 -0.0645,-0.008 0.012,0.005 0.0131,0.007 0.0274,0.0117 -0.0504,-0.0169 -0.0476,-0.0156 -0.0274,-0.0117 -0.11428,-0.0431 -0.14247,-0.0763 -0.15429,-0.0977 -0.0131,-0.0236 -0.0302,-0.0805 -0.0156,-0.20507 0.0292,-0.24917 0.2055,-0.67516 0.35938,-1.1055 0.0769,-0.21516 0.14852,-0.43604 0.17578,-0.67774 0.0273,-0.2417 0.006,-0.53533 -0.17578,-0.78711 -0.18155,-0.25177 -0.47836,-0.39019 -0.79883,-0.44335 -0.16024,-0.0266 -0.33415,-0.0375 -0.52734,-0.0332 z"
       fill="currentColor"
       id="path180" />
    <rect
       x="198"
       y="110"
       width="22"
       height="22"
       fill="none"
       id="rect182" />
    <rect
       x="198"
       y="110"
       width="22"
       height="22"
       fill="none"
       id="rect184" />
  </g>
  <g
     id="ime-emoji">
    <rect
       style="fill:none;fill-opacity:1;stroke-width:0.132292;stroke-linejoin:round"
       id="rect114605"
       width="5.8208332"
       height="5.8208332"
       x="-6.5378541e-10"
       y="34.924999" />
    <path
       id="path114853"
       class="ColorScheme-Text"
       style="fill:currentColor;fill-opacity:1;stroke-width:0.363637;stroke-linejoin:round"
       d="m 11,135 a 8.0000005,8.0000014 0 0 0 -8,8 8.0000005,8.0000014 0 0 0 8,8 8.0000005,8.0000014 0 0 0 8,-8 8.0000005,8.0000014 0 0 0 -8,-8 z m 0,1 a 7,7.0000009 0 0 1 7,7 7,7.0000009 0 0 1 -7,7 7,7.0000009 0 0 1 -7,-7 7,7.0000009 0 0 1 7,-7 z m -3,4 a 1.0000001,1.0000001 0 0 0 -1,1 1.0000001,1.0000001 0 0 0 1,1 1.0000001,1.0000001 0 0 0 1,-1 1.0000001,1.0000001 0 0 0 -1,-1 z m 6,0 a 1.0000001,1.0000001 0 0 0 -1,1 1.0000001,1.0000001 0 0 0 1,1 1.0000001,1.0000001 0 0 0 1,-1 1.0000001,1.0000001 0 0 0 -1,-1 z m -5.828125,5.82812 -0.6992188,0.69922 A 5,5 0 0 0 11,148 a 5,5 0 0 0 3.535156,-1.46484 l -0.707031,-0.70704 A 4.0000004,4.0000004 0 0 1 11,147 4.0000004,4.0000004 0 0 1 8.171875,145.82812 Z"
       transform="scale(0.26458334)" />
  </g>
</svg>
