<?xml version="1.0" encoding="UTF-8" standalone="no"?>
<!-- Created with Inkscape (http://www.inkscape.org/) -->

<svg
   width="22"
   height="22"
   viewBox="0 0 5.8208332 5.8208335"
   version="1.1"
   id="svg5"
   inkscape:version="1.1.1 (3bf5ae0d25, 2021-09-20, custom)"
   sodipodi:docname="input.svg"
   xmlns:inkscape="http://www.inkscape.org/namespaces/inkscape"
   xmlns:sodipodi="http://sodipodi.sourceforge.net/DTD/sodipodi-0.dtd"
   xmlns="http://www.w3.org/2000/svg"
   xmlns:svg="http://www.w3.org/2000/svg">
  <sodipodi:namedview
     id="namedview7"
     pagecolor="#ffffff"
     bordercolor="#666666"
     borderopacity="1.0"
     inkscape:pageshadow="2"
     inkscape:pageopacity="0.0"
     inkscape:pagecheckerboard="0"
     inkscape:document-units="px"
     showgrid="false"
     units="px"
     height="22px"
     inkscape:zoom="1.587419"
     inkscape:cx="-30.55274"
     inkscape:cy="122.52594"
     inkscape:window-width="1920"
     inkscape:window-height="1007"
     inkscape:window-x="0"
     inkscape:window-y="0"
     inkscape:window-maximized="1"
     inkscape:current-layer="svg5" />
  <defs
     id="defs2">
    <style
       id="current-color-scheme"
       type="text/css">
      .ColorScheme-Text {
        color:#31363b;
      }
      .ColorScheme-Background {
        color:#eff0f1;
      }
      .ColorScheme-Highlight {
        color:#3daee9;
      }
      .ColorScheme-ViewText {
        color:#31363b;
      }
      .ColorScheme-ViewBackground {
        color:#fcfcfc;
      }
      .ColorScheme-ViewHover {
        color:#93cee9;
      }
      .ColorScheme-ViewFocus{
        color:#3daee9;
      }
      .ColorScheme-ButtonText {
        color:#31363b;
      }
      .ColorScheme-ButtonBackground {
        color:#eff0f1;
      }
      .ColorScheme-ButtonHover {
        color:#93cee9;
      }
      .ColorScheme-ButtonFocus{
        color:#3daee9;
      }
      </style>
  </defs>
  <g
     id="22-22-input-mouse-battery"
     transform="matrix(0.26458333,0,0,0.26458333,-86.251521,-82.116082)">
    <rect
       x="326"
       y="534.35999"
       width="22"
       height="22"
       ry="0"
       fill="none"
       id="rect5" />
    <path
       class="ColorScheme-Text"
       transform="translate(326,534.36)"
       d="M 13.5,3 C 10.453,3 8,5.676 8,9 v 4 c 0,3.324 2.453,6 5.5,6 3.047,0 5.5,-2.676 5.5,-6 V 9 C 19,5.676 16.547,3 13.5,3 Z m 0,1 C 15.993,4 18,6.007 18,8.5 v 5 C 18,15.993 15.993,18 13.5,18 11.007,18 9,15.993 9,13.5 v -5 C 9,6.007 11.007,4 13.5,4 Z m 0,2 C 13.223,6 13,6.223 13,6.5 v 2 C 13,8.777 13.223,9 13.5,9 13.777,9 14,8.777 14,8.5 v -2 C 14,6.223 13.777,6 13.5,6 Z"
       fill="currentColor"
       id="path7" />
    <path
       class="ColorScheme-Text"
       d="m 331,537.36 -2,5 h 2 v 3 l 2,-5 h -2 z"
       fill="currentColor"
       id="path9" />
  </g>
  <g
     id="22-22-input-keyboard-battery"
     transform="matrix(0.26458333,0,0,0.26458333,-92.072354,-107.51608)">
    <rect
       x="348"
       y="534.35999"
       width="22"
       height="22"
       ry="0"
       fill="none"
       id="rect12" />
    <path
       class="ColorScheme-Text"
       transform="translate(332,396.36)"
       d="m 20,141 v 14 l 7,2 7,-2 v -5 h -1 v 2 H 21 v -10 h 8 v -1 z m 12,0 -2,5 h 2 v 3 l 2,-5 H 32 Z M 26.4375,144 24,150 h 1.0742 l 0.40625,-1 h 3.0391 l 0.40625,1 H 30 l -2.4395,-6 H 27.02339 L 26.99995,144.01 26.97651,144 Z M 27,145.2578 28.1133,148 H 25.8867 Z M 21,153 h 12 v 1 H 21 Z"
       fill="currentColor"
       id="path14" />
  </g>
  <g
     id="22-22-input-keyboard-brightness"
     transform="matrix(0.26458333,0,0,0.26458333,-97.893187,-115.98275)">
    <rect
       x="370"
       y="534.35999"
       width="22"
       height="22"
       ry="0"
       fill="none"
       id="rect17" />
    <path
       class="ColorScheme-Text"
       transform="translate(354,428.36)"
       d="m 20,109 v 14 l 7,2 7,-2 v -9 h -1 v 6 H 21 v -10 h 8 v -1 z m 12,0 c -1.1046,0 -2,0.89543 -2,2 0,1.10457 0.89543,2 2,2 1.10457,0 2,-0.89543 2,-2 0,-1.10457 -0.89543,-2 -2,-2 z m 0,1 v 2 c -0.55228,0 -1,-0.44771 -1,-1 0,-0.55228 0.44772,-1 1,-1 z M 26.4375,112 24,118 h 1.0742 l 0.40625,-1 h 3.0391 l 0.40625,1 H 30 l -2.4395,-6 H 27.02339 L 26.99995,112.01 26.97651,112 Z M 27,113.2578 28.1133,116 H 25.8867 Z M 21,121 h 12 v 1 H 21 Z"
       fill="currentColor"
       id="path19" />
  </g>
  <g
     id="input-keyboard-battery"
     transform="matrix(0.26458333,0,0,0.26458333,-92.072354,-115.98275)">
    <rect
       x="370"
       y="556.35999"
       width="32"
       height="32"
       ry="0"
       fill="none"
       id="rect22" />
    <path
       class="ColorScheme-Text"
       transform="translate(332,428.36)"
       d="m 44,132 v 20 l 10,4 10,-4 v -11 h -1 v 8 H 45 v -16 h 14 v -1 z m 18,0 -2,5 h 2 v 3 l 2,-5 H 62 Z M 53.4062,136 49,146 h 1.3008 l 1.3223,-3 h 4.7227 l 1.3496,3 h 1.3047 l -4.5,-10 z m 0.55273,1.6953 1.9375,4.3047 h -3.834 z m -8.959,12.305 h 18 v 1 h -18 z"
       fill="currentColor"
       id="path24" />
  </g>
  <g
     id="input-keyboard-brightness"
     transform="matrix(0.26458333,0,0,0.26458333,-100.53902,-124.44941)">
    <rect
       x="402"
       y="556.35999"
       width="32"
       height="32"
       ry="0"
       fill="none"
       id="rect27" />
    <path
       class="ColorScheme-Text"
       transform="translate(364,460.36)"
       d="m 44,100 v 20 l 10,4 10,-4 v -10 h -1 v 7 H 45 v -16 h 12 v -1 z m 9.4062,4 L 49,114 h 1.3008 l 1.3223,-3 h 4.7227 l 1.3496,3 h 1.3047 l -4.5,-10 z m 0.55273,1.6953 1.9375,4.3047 h -3.834 z m -8.959,12.305 h 18 v 1 h -18 z"
       fill="currentColor"
       id="path29" />
    <path
       class="ColorScheme-Text"
       transform="translate(326,534.36)"
       d="m 100,25 c -0.277,0 -0.5,0.223 -0.5,0.5 v 1 c 0,0.277 0.223,0.5 0.5,0.5 0.277,0 0.5,-0.223 0.5,-0.5 v -1 c 0,-0.277 -0.223,-0.5 -0.5,-0.5 z m -3.1816,1.3184 c -0.12781,0 -0.25558,0.04855 -0.35352,0.14648 -0.19587,0.19587 -0.19587,0.51116 0,0.70703 l 0.70703,0.70703 c 0.19587,0.19587 0.51116,0.19587 0.70703,0 0.19587,-0.19587 0.19587,-0.51116 0,-0.70703 L 97.17191,26.46488 C 97.07398,26.36695 96.9462,26.3184 96.81839,26.3184 Z m 6.3633,0 c -0.12781,0 -0.25558,0.04855 -0.35352,0.14648 l -0.70703,0.70703 c -0.19586,0.19587 -0.19586,0.51116 0,0.70703 0.19587,0.19587 0.51117,0.19587 0.70703,0 l 0.70704,-0.70703 c 0.19586,-0.19587 0.19586,-0.51116 0,-0.70703 -0.0979,-0.09793 -0.22571,-0.14648 -0.35352,-0.14648 z M 100.0001,28 c -1.1046,0 -2,0.89543 -2,2 0,1.10457 0.89543,2 2,2 1.1046,0 2,-0.89543 2,-2 0,-1.10457 -0.89543,-2 -2,-2 z m 0,1 v 2 c -0.55228,0 -1,-0.44772 -1,-1 0,-0.55228 0.44772,-1 1,-1 z m -4.5,0.5 c -0.277,0 -0.5,0.223 -0.5,0.5 0,0.277 0.223,0.5 0.5,0.5 h 1 c 0.277,0 0.5,-0.223 0.5,-0.5 0,-0.277 -0.223,-0.5 -0.5,-0.5 z m 8,0 c -0.277,0 -0.5,0.223 -0.5,0.5 0,0.277 0.223,0.5 0.5,0.5 h 1 c 0.277,0 0.5,-0.223 0.5,-0.5 0,-0.277 -0.223,-0.5 -0.5,-0.5 z m -5.9746,2.4746 c -0.12781,0 -0.25558,0.04855 -0.35352,0.14648 l -0.70703,0.70703 c -0.19587,0.19587 -0.19587,0.51116 0,0.70703 0.19587,0.19587 0.51116,0.19587 0.70703,0 l 0.70703,-0.70703 c 0.19587,-0.19587 0.19587,-0.51116 0,-0.70703 C 97.78108,32.02315 97.6533,31.9746 97.52549,31.9746 Z m 4.9492,0 c -0.12781,0 -0.25558,0.04855 -0.35352,0.14648 -0.19586,0.19587 -0.19586,0.51116 0,0.70703 l 0.70703,0.70703 c 0.19587,0.19587 0.51117,0.19587 0.70704,0 0.19586,-0.19587 0.19586,-0.51116 0,-0.70703 l -0.70704,-0.70703 c -0.0979,-0.09793 -0.2257,-0.14648 -0.35351,-0.14648 z M 100.0001,33 c -0.277,0 -0.5,0.223 -0.5,0.5 v 1 c 0,0.277 0.223,0.5 0.5,0.5 0.277,0 0.5,-0.223 0.5,-0.5 v -1 c 0,-0.277 -0.223,-0.5 -0.5,-0.5 z"
       fill="currentColor"
       id="path31" />
  </g>
  <g
     id="16-16-input-mouse-battery"
     transform="matrix(0.26458333,0,0,0.26458333,-84.399437,-81.322332)">
    <path
       class="ColorScheme-Text"
       transform="translate(319,457.36)"
       d="m -8,82 a 4,4 0 0 0 -4,4 v 4 a 4,4 0 0 0 4,4 4,4 0 0 0 4,-4 v -4 a 4,4 0 0 0 -4,-4 z m 0,1 a 3,3 0 0 1 3,3 v 4 a 3,3 0 0 1 -3,3 3,3 0 0 1 -3,-3 v -4 a 3,3 0 0 1 3,-3 z m 0,1 -2,5 h 2 v 3 l 2,-5 h -2 z"
       fill="currentColor"
       id="path34" />
    <rect
       x="303"
       y="537.35999"
       width="16"
       height="16"
       fill="none"
       id="rect36" />
  </g>
  <g
     id="22-22-input-caps-on"
     transform="matrix(0.26458333,0,0,0.26458333,11.44217,3.5089037)">
    <rect
       x="-43.241001"
       y="146.74001"
       width="22"
       height="22"
       fill="none"
       id="rect39" />
    <path
       class="ColorScheme-Text"
       d="m -39.241,149.74 v 14 l 7,2 7,-2 v -14 z m 1,1 h 12 v 10 h -12 z m 5.4375,2 -2.4375,6 h 1.0742 l 0.40625,-1 h 3.0391 l 0.40625,1 h 1.0742 l -2.4394,-6 h -0.53711 l -0.0234,0.01 -0.0234,-0.01 z m 0.5625,1.2578 1.1133,2.7422 h -2.2266 z m -6,7.7422 h 12 v 1 h -12 z"
       fill="currentColor"
       id="path41" />
  </g>
  <g
     id="22-22-input-num-on"
     transform="matrix(0.26458333,0,0,0.26458333,-6.3486775,19.844808)">
    <rect
       x="24"
       y="117"
       width="22"
       height="22"
       fill="none"
       id="rect44" />
    <path
       class="ColorScheme-Text"
       d="m 28,120 v 14 l 7,2 7,-2 v -14 z m 1,1 h 12 v 10 H 29 Z m 6,2 v 1 h -1 v 1 h 1 v 3 h -1 v 1 h 3 v -1 h -1 v -5 z m -6,9 h 12 v 1 H 29 Z"
       fill="currentColor"
       id="path46" />
  </g>
  <g
     id="input-caps-on"
     transform="matrix(0.26458333,0,0,0.26458333,0.7950985,10.055225)">
    <rect
       x="19"
       y="112"
       width="32"
       height="32"
       fill="none"
       id="rect49" />
    <path
       class="ColorScheme-Text"
       d="m 25,116 v 20 l 10,4 10,-4 v -20 h -1 z m 1,1 h 18 v 16 H 26 Z m 8.4062,3 L 30,130 h 1.3008 l 1.3223,-3 h 4.7226 l 1.3496,3 H 40 l -4.5,-10 z m 0.55273,1.6953 1.9375,4.3047 h -3.834 z m -8.959,12.305 h 18 v 1 h -18 z"
       fill="currentColor"
       id="path51" />
  </g>
  <g
     id="input-num-on"
     transform="matrix(0.26458333,0,0,0.26458333,0.7950985,18.521891)">
    <rect
       x="19"
       y="112"
       width="32"
       height="32"
       fill="none"
       id="rect54" />
    <path
       class="ColorScheme-Text"
       d="m 25,116 v 20 l 10,4 10,-4 v -20 h -1 z m 1,1 h 18 v 16 H 26 Z m 9,3 v 2 h -2 v 1 h 2 v 6 h -2 v 1 h 5 v -1 h -2 v -9 z m -9,14 h 18 v 1 H 26 Z"
       fill="currentColor"
       id="path56" />
  </g>
  <g
     id="input-mouse-battery"
     transform="matrix(0.26458333,0,0,0.26458333,-0.5291675,-2.6458333)">
    <path
       d="m 42.946,228 a 7.9999,8.7275 0 0 0 -0.2433,0.006 7.9999,8.7275 0 0 0 -0.24553,0.0128 7.9999,8.7275 0 0 0 -0.24553,0.0234 7.9999,8.7275 0 0 0 -0.2433,0.0298 7.9999,8.7275 0 0 0 -0.2433,0.0383 7.9999,8.7275 0 0 0 -0.24107,0.0469 7.9999,8.7275 0 0 0 -0.24107,0.0554 7.9999,8.7275 0 0 0 -0.23661,0.0618 7.9999,8.7275 0 0 0 -0.2366,0.0703 7.9999,8.7275 0 0 0 -0.2366,0.0788 7.9999,8.7275 0 0 0 -0.23214,0.0874 7.9999,8.7275 0 0 0 -0.22768,0.0937 7.9999,8.7275 0 0 0 -0.22768,0.10228 7.9999,8.7275 0 0 0 -0.22321,0.10867 7.9999,8.7275 0 0 0 -0.22098,0.11719 7.9999,8.7275 0 0 0 -0.21875,0.12357 7.9999,8.7275 0 0 0 -0.21428,0.13211 7.9999,8.7275 0 0 0 -0.20982,0.1385 7.9999,8.7275 0 0 0 -0.20536,0.14489 7.9999,8.7275 0 0 0 -0.20089,0.15128 7.9999,8.7275 0 0 0 -0.19866,0.15982 7.9999,8.7275 0 0 0 -0.19196,0.16406 7.9999,8.7275 0 0 0 -0.18973,0.17259 7.9999,8.7275 0 0 0 -0.18303,0.17897 7.9999,8.7275 0 0 0 -0.17857,0.18325 7.9999,8.7275 0 0 0 -0.17187,0.18964 7.9999,8.7275 0 0 0 -0.16741,0.19603 7.9999,8.7275 0 0 0 -0.16294,0.20029 7.9999,8.7275 0 0 0 -0.15625,0.20668 7.9999,8.7275 0 0 0 -0.14955,0.21094 7.9999,8.7275 0 0 0 -0.14509,0.21734 7.9999,8.7275 0 0 0 -0.13616,0.22159 7.9999,8.7275 0 0 0 -0.13393,0.22586 7.9999,8.7275 0 0 0 -0.125,0.23011 7.9999,8.7275 0 0 0 -0.1183,0.23439 7.9999,8.7275 0 0 0 -0.1116,0.23652 7.9999,8.7275 0 0 0 -0.10714,0.2429 7.9999,8.7275 0 0 0 -0.09821,0.24502 7.9999,8.7275 0 0 0 -0.09152,0.24717 7.9999,8.7275 0 0 0 -0.08483,0.25143 7.9999,8.7275 0 0 0 -0.07812,0.25356 7.9999,8.7275 0 0 0 -0.0692,0.25782 7.9999,8.7275 0 0 0 -0.06473,0.25783 7.9999,8.7275 0 0 0 -0.05581,0.25994 7.9999,8.7275 0 0 0 -0.04687,0.26209 7.9999,8.7275 0 0 0 -0.04241,0.2642 7.9999,8.7275 0 0 0 -0.03348,0.26634 7.9999,8.7275 0 0 0 -0.02679,0.26635 7.9999,8.7275 0 0 0 -0.01786,0.26635 7.9999,8.7275 0 0 0 -0.01116,0.26635 7.9999,8.7275 0 0 0 -0.0045,0.26846 v 6.5456 a 7.9999,8.7275 0 0 0 0,0.0575 7.9999,8.7275 0 0 0 0.0045,0.26635 7.9999,8.7275 0 0 0 0.01339,0.26847 7.9999,8.7275 0 0 0 0.02009,0.26635 7.9999,8.7275 0 0 0 0.02902,0.26633 7.9999,8.7275 0 0 0 0.03571,0.26422 7.9999,8.7275 0 0 0 0.04241,0.2642 7.9999,8.7275 0 0 0 0.0491,0.26209 7.9999,8.7275 0 0 0 0.05804,0.25995 7.9999,8.7275 0 0 0 0.06473,0.25782 7.9999,8.7275 0 0 0 0.07143,0.25569 7.9999,8.7275 0 0 0 0.08035,0.25356 7.9999,8.7275 0 0 0 0.08706,0.25142 7.9999,8.7275 0 0 0 0.09152,0.24717 7.9999,8.7275 0 0 0 0.10044,0.24504 7.9999,8.7275 0 0 0 0.10714,0.24078 7.9999,8.7275 0 0 0 0.11384,0.23649 7.9999,8.7275 0 0 0 0.12054,0.23438 7.9999,8.7275 0 0 0 0.12723,0.22799 7.9999,8.7275 0 0 0 0.13393,0.22587 7.9999,8.7275 0 0 0 0.13839,0.21946 7.9999,8.7275 0 0 0 0.14509,0.2152 7.9999,8.7275 0 0 0 0.15178,0.21095 7.9999,8.7275 0 0 0 0.15848,0.20454 7.9999,8.7275 0 0 0 0.16294,0.2003 7.9999,8.7275 0 0 0 0.16741,0.1939 7.9999,8.7275 0 0 0 0.17411,0.18963 7.9999,8.7275 0 0 0 0.1808,0.18111 7.9999,8.7275 0 0 0 0.18303,0.17685 7.9999,8.7275 0 0 0 0.18973,0.17046 7.9999,8.7275 0 0 0 0.19419,0.16407 7.9999,8.7275 0 0 0 0.19866,0.15768 7.9999,8.7275 0 0 0 0.20312,0.15129 7.9999,8.7275 0 0 0 0.20535,0.14275 7.9999,8.7275 0 0 0 0.21205,0.13849 7.9999,8.7275 0 0 0 0.21428,0.12999 7.9999,8.7275 0 0 0 0.21875,0.12145 7.9999,8.7275 0 0 0 0.22098,0.11506 7.9999,8.7275 0 0 0 0.22544,0.10867 7.9999,8.7275 0 0 0 0.22544,0.10013 7.9999,8.7275 0 0 0 0.23214,0.0916 7.9999,8.7275 0 0 0 0.23214,0.0852 7.9999,8.7275 0 0 0 0.23437,0.0767 7.9999,8.7275 0 0 0 0.2366,0.0682 7.9999,8.7275 0 0 0 0.23884,0.0618 7.9999,8.7275 0 0 0 0.24107,0.0533 7.9999,8.7275 0 0 0 0.2433,0.0448 7.9999,8.7275 0 0 0 0.24107,0.0362 7.9999,8.7275 0 0 0 0.24553,0.0298 7.9999,8.7275 0 0 0 0.2433,0.0192 7.9999,8.7275 0 0 0 0.24553,0.0128 7.9999,8.7275 0 0 0 0.24553,0.004 7.9999,8.7275 0 0 0 0.05358,0 7.9999,8.7275 0 0 0 0.2433,-0.006 7.9999,8.7275 0 0 0 0.24553,-0.0128 7.9999,8.7275 0 0 0 0.24553,-0.0234 7.9999,8.7275 0 0 0 0.2433,-0.0298 7.9999,8.7275 0 0 0 0.2433,-0.0383 7.9999,8.7275 0 0 0 0.24107,-0.0469 7.9999,8.7275 0 0 0 0.24107,-0.0554 7.9999,8.7275 0 0 0 0.23661,-0.0618 7.9999,8.7275 0 0 0 0.2366,-0.0703 7.9999,8.7275 0 0 0 0.2366,-0.0788 7.9999,8.7275 0 0 0 0.23214,-0.0874 7.9999,8.7275 0 0 0 0.22768,-0.0937 7.9999,8.7275 0 0 0 0.22768,-0.10228 7.9999,8.7275 0 0 0 0.22321,-0.10866 7.9999,8.7275 0 0 0 0.22098,-0.1172 7.9999,8.7275 0 0 0 0.21875,-0.12357 7.9999,8.7275 0 0 0 0.21428,-0.13211 7.9999,8.7275 0 0 0 0.20982,-0.1385 7.9999,8.7275 0 0 0 0.20536,-0.14489 7.9999,8.7275 0 0 0 0.20089,-0.15128 7.9999,8.7275 0 0 0 0.19866,-0.15982 7.9999,8.7275 0 0 0 0.19196,-0.16406 7.9999,8.7275 0 0 0 0.18973,-0.17259 7.9999,8.7275 0 0 0 0.18303,-0.17897 7.9999,8.7275 0 0 0 0.17857,-0.18325 7.9999,8.7275 0 0 0 0.17187,-0.18963 7.9999,8.7275 0 0 0 0.16741,-0.19604 7.9999,8.7275 0 0 0 0.16294,-0.20029 7.9999,8.7275 0 0 0 0.15625,-0.20667 7.9999,8.7275 0 0 0 0.14955,-0.21095 7.9999,8.7275 0 0 0 0.14509,-0.21734 7.9999,8.7275 0 0 0 0.13616,-0.2216 7.9999,8.7275 0 0 0 0.13393,-0.22585 7.9999,8.7275 0 0 0 0.125,-0.23012 7.9999,8.7275 0 0 0 0.1183,-0.23439 7.9999,8.7275 0 0 0 0.1116,-0.23651 7.9999,8.7275 0 0 0 0.10714,-0.24289 7.9999,8.7275 0 0 0 0.09821,-0.24503 7.9999,8.7275 0 0 0 0.09152,-0.24717 7.9999,8.7275 0 0 0 0.08483,-0.25143 7.9999,8.7275 0 0 0 0.07812,-0.25356 7.9999,8.7275 0 0 0 0.0692,-0.25781 7.9999,8.7275 0 0 0 0.06473,-0.25783 7.9999,8.7275 0 0 0 0.05581,-0.25995 7.9999,8.7275 0 0 0 0.04687,-0.26209 7.9999,8.7275 0 0 0 0.04241,-0.2642 7.9999,8.7275 0 0 0 0.03348,-0.26634 7.9999,8.7275 0 0 0 0.02679,-0.26635 7.9999,8.7275 0 0 0 0.01786,-0.26634 7.9999,8.7275 0 0 0 0.01116,-0.26635 7.9999,8.7275 0 0 0 0.0045,-0.26847 v -6.5456 a 7.9999,8.7275 0 0 0 0,-0.0575 7.9999,8.7275 0 0 0 -0.0045,-0.26635 7.9999,8.7275 0 0 0 -0.01339,-0.26846 7.9999,8.7275 0 0 0 -0.02009,-0.26635 7.9999,8.7275 0 0 0 -0.02902,-0.26634 7.9999,8.7275 0 0 0 -0.03571,-0.26422 7.9999,8.7275 0 0 0 -0.04241,-0.2642 7.9999,8.7275 0 0 0 -0.0491,-0.26209 7.9999,8.7275 0 0 0 -0.05804,-0.25995 7.9999,8.7275 0 0 0 -0.06473,-0.25781 7.9999,8.7275 0 0 0 -0.07143,-0.25569 7.9999,8.7275 0 0 0 -0.08035,-0.25357 7.9999,8.7275 0 0 0 -0.08706,-0.25142 7.9999,8.7275 0 0 0 -0.09152,-0.24717 7.9999,8.7275 0 0 0 -0.10044,-0.24504 7.9999,8.7275 0 0 0 -0.10714,-0.24077 7.9999,8.7275 0 0 0 -0.11384,-0.23651 7.9999,8.7275 0 0 0 -0.12054,-0.23438 7.9999,8.7275 0 0 0 -0.12723,-0.22799 7.9999,8.7275 0 0 0 -0.13393,-0.22586 7.9999,8.7275 0 0 0 -0.13839,-0.21946 7.9999,8.7275 0 0 0 -0.14509,-0.2152 7.9999,8.7275 0 0 0 -0.15178,-0.21094 7.9999,8.7275 0 0 0 -0.15848,-0.20455 7.9999,8.7275 0 0 0 -0.16294,-0.2003 7.9999,8.7275 0 0 0 -0.16741,-0.19389 7.9999,8.7275 0 0 0 -0.17411,-0.18964 7.9999,8.7275 0 0 0 -0.1808,-0.18111 7.9999,8.7275 0 0 0 -0.18303,-0.17685 7.9999,8.7275 0 0 0 -0.18973,-0.17046 7.9999,8.7275 0 0 0 -0.19419,-0.16406 7.9999,8.7275 0 0 0 -0.19866,-0.15769 7.9999,8.7275 0 0 0 -0.20312,-0.15128 7.9999,8.7275 0 0 0 -0.20535,-0.14276 7.9999,8.7275 0 0 0 -0.21205,-0.13849 7.9999,8.7275 0 0 0 -0.21428,-0.12999 7.9999,8.7275 0 0 0 -0.21875,-0.12145 7.9999,8.7275 0 0 0 -0.22098,-0.11505 7.9999,8.7275 0 0 0 -0.22544,-0.10868 7.9999,8.7275 0 0 0 -0.22544,-0.10013 7.9999,8.7275 0 0 0 -0.23214,-0.0916 7.9999,8.7275 0 0 0 -0.23214,-0.0852 7.9999,8.7275 0 0 0 -0.23437,-0.0767 7.9999,8.7275 0 0 0 -0.2366,-0.0682 7.9999,8.7275 0 0 0 -0.23884,-0.0618 7.9999,8.7275 0 0 0 -0.24107,-0.0533 7.9999,8.7275 0 0 0 -0.2433,-0.0448 7.9999,8.7275 0 0 0 -0.24107,-0.0362 7.9999,8.7275 0 0 0 -0.24553,-0.0298 7.9999,8.7275 0 0 0 -0.2433,-0.0192 7.9999,8.7275 0 0 0 -0.24553,-0.0128 7.9999,8.7275 0 0 0 -0.24553,-0.004 7.9999,8.7275 0 0 0 -0.05357,0 z m 0.05357,3.2728 a 1.1428,1.0909 0 0 1 0.06473,0.002 1.1428,1.0909 0 0 1 0.09598,0.009 1.1428,1.0909 0 0 1 0.09375,0.017 1.1428,1.0909 0 0 1 0.09375,0.0234 1.1428,1.0909 0 0 1 0.08929,0.032 1.1428,1.0909 0 0 1 0.08706,0.0383 1.1428,1.0909 0 0 1 0.08483,0.0469 1.1428,1.0909 0 0 1 0.07812,0.0511 1.1428,1.0909 0 0 1 0.07366,0.0575 1.1428,1.0909 0 0 1 0.0692,0.0639 1.1428,1.0909 0 0 1 0.0625,0.0703 1.1428,1.0909 0 0 1 0.05804,0.0746 1.1428,1.0909 0 0 1 0.04911,0.0767 1.1428,1.0909 0 0 1 0.04241,0.0831 1.1428,1.0909 0 0 1 0.03571,0.0852 1.1428,1.0909 0 0 1 0.02902,0.0874 1.1428,1.0909 0 0 1 0.02009,0.0895 1.1428,1.0909 0 0 1 0.01116,0.0916 1.1428,1.0909 0 0 1 0.0045,0.0916 v 3.2728 a 1.1428,1.0909 0 0 1 -0.0022,0.0618 1.1428,1.0909 0 0 1 -0.0089,0.0916 1.1428,1.0909 0 0 1 -0.01786,0.0895 1.1428,1.0909 0 0 1 -0.02456,0.0895 1.1428,1.0909 0 0 1 -0.03348,0.0852 1.1428,1.0909 0 0 1 -0.04018,0.0831 1.1428,1.0909 0 0 1 -0.0491,0.081 1.1428,1.0909 0 0 1 -0.05357,0.0746 1.1428,1.0909 0 0 1 -0.06027,0.0703 1.1428,1.0909 0 0 1 -0.06696,0.066 1.1428,1.0909 0 0 1 -0.07366,0.0597 1.1428,1.0909 0 0 1 -0.07812,0.0554 1.1428,1.0909 0 0 1 -0.08035,0.0469 1.1428,1.0909 0 0 1 -0.08706,0.0405 1.1428,1.0909 0 0 1 -0.08929,0.0341 1.1428,1.0909 0 0 1 -0.09152,0.0277 1.1428,1.0909 0 0 1 -0.09375,0.0192 1.1428,1.0909 0 0 1 -0.09598,0.0106 1.1428,1.0909 0 0 1 -0.09598,0.004 1.1428,1.0909 0 0 1 -0.06473,-0.002 1.1428,1.0909 0 0 1 -0.09598,-0.009 1.1428,1.0909 0 0 1 -0.09375,-0.017 1.1428,1.0909 0 0 1 -0.09375,-0.0234 1.1428,1.0909 0 0 1 -0.08929,-0.0319 1.1428,1.0909 0 0 1 -0.08706,-0.0384 1.1428,1.0909 0 0 1 -0.08483,-0.0469 1.1428,1.0909 0 0 1 -0.07812,-0.0511 1.1428,1.0909 0 0 1 -0.07366,-0.0575 1.1428,1.0909 0 0 1 -0.06919,-0.0639 1.1428,1.0909 0 0 1 -0.0625,-0.0703 1.1428,1.0909 0 0 1 -0.05804,-0.0746 1.1428,1.0909 0 0 1 -0.04911,-0.0767 1.1428,1.0909 0 0 1 -0.04241,-0.0831 1.1428,1.0909 0 0 1 -0.03571,-0.0852 1.1428,1.0909 0 0 1 -0.02902,-0.0874 1.1428,1.0909 0 0 1 -0.02009,-0.0895 1.1428,1.0909 0 0 1 -0.01116,-0.0916 1.1428,1.0909 0 0 1 -0.0045,-0.0916 v -3.2728 a 1.1428,1.0909 0 0 1 0.0022,-0.0618 1.1428,1.0909 0 0 1 0.0089,-0.0916 1.1428,1.0909 0 0 1 0.01786,-0.0895 1.1428,1.0909 0 0 1 0.02456,-0.0895 1.1428,1.0909 0 0 1 0.03348,-0.0852 1.1428,1.0909 0 0 1 0.04018,-0.0831 1.1428,1.0909 0 0 1 0.0491,-0.081 1.1428,1.0909 0 0 1 0.05358,-0.0746 1.1428,1.0909 0 0 1 0.06027,-0.0703 1.1428,1.0909 0 0 1 0.06696,-0.066 1.1428,1.0909 0 0 1 0.07366,-0.0597 1.1428,1.0909 0 0 1 0.07812,-0.0554 1.1428,1.0909 0 0 1 0.08035,-0.0469 1.1428,1.0909 0 0 1 0.08706,-0.0405 1.1428,1.0909 0 0 1 0.08929,-0.0341 1.1428,1.0909 0 0 1 0.09152,-0.0277 1.1428,1.0909 0 0 1 0.09375,-0.0192 1.1428,1.0909 0 0 1 0.09598,-0.0106 1.1428,1.0909 0 0 1 0.09596,-0.004 z m 0,8.7275 v 3.2728 h 2.2857 l -2.2857,5.4547 v -3.2728 h -2.2857 z"
       fill="currentColor"
       class="ColorScheme-Text"
       id="path367" />
    <rect
       x="27"
       y="224"
       width="32"
       height="32"
       ry="0"
       fill="none"
       id="rect369" />
  </g>
  <g
     id="22-22-input-keyboard"
     transform="scale(0.26458333)">
    <rect
       y="-1.4e-06"
       width="22"
       height="22"
       fill="none"
       id="rect5-3"
       x="0" />
    <path
       id="rect1077"
       class="ColorScheme-Text"
       style="fill:currentColor;stroke-width:0.5;stroke-linejoin:round"
       d="M 5,6 C 3.892,6 3,6.892 3,8 v 7 c 0,1.108 0.892,2 2,2 h 12 c 1.108,0 2,-0.892 2,-2 V 8 C 19,6.892 18.108,6 17,6 Z m 0,1 h 12 c 0.554,0 1,0.446 1,1 v 7 c 0,0.554 -0.446,1 -1,1 H 5 C 4.446,16 4,15.554 4,15 V 8 C 4,7.446 4.446,7 5,7 Z M 6.5019531,8.5 C 6.0864331,8.5 5.75,8.8364331 5.75,9.2519531 c 0,0.41552 0.3364331,0.7519529 0.7519531,0.7519529 0.41552,0 0.7519531,-0.3364329 0.7519531,-0.7519529 C 7.2539062,8.8364331 6.9174731,8.5 6.5019531,8.5 Z m 3,0 C 9.0864331,8.5 8.75,8.8364331 8.75,9.2519531 c 0,0.41552 0.3364331,0.7519529 0.7519531,0.7519529 0.4155199,0 0.7519529,-0.3364329 0.7519529,-0.7519529 C 10.253906,8.8364331 9.917473,8.5 9.5019531,8.5 Z m 2.9999999,0 C 12.086353,8.5 11.75,8.8364331 11.75,9.2519531 c 0,0.41552 0.336353,0.7519529 0.751953,0.7519529 0.4155,0 0.751953,-0.3364329 0.751953,-0.7519529 C 13.253906,8.8364331 12.917453,8.5 12.501953,8.5 Z m 3,0 C 15.086353,8.5 14.75,8.8364331 14.75,9.2519531 c 0,0.41552 0.336353,0.7519529 0.751953,0.7519529 0.4155,0 0.751953,-0.3364329 0.751953,-0.7519529 C 16.253906,8.8364331 15.917453,8.5 15.501953,8.5 Z M 7.9980469,11 c -0.41552,0 -0.7519531,0.336433 -0.7519531,0.751953 0,0.41549 0.3364331,0.751953 0.7519531,0.751953 C 8.4135669,12.503906 8.75,12.167443 8.75,11.751953 8.75,11.336433 8.4135669,11 7.9980469,11 Z m 3.0039061,0 C 10.586403,11 10.25,11.336433 10.25,11.751953 c 0,0.41549 0.336403,0.751953 0.751953,0.751953 0.4155,0 0.751953,-0.336463 0.751953,-0.751953 C 11.753906,11.336433 11.417453,11 11.001953,11 Z m 3.005859,0 c -0.415499,0 -0.753906,0.336433 -0.753906,0.751953 0,0.41549 0.338407,0.751953 0.753906,0.751953 0.4156,0 0.751954,-0.336463 0.751954,-0.751953 C 14.759766,11.336433 14.423412,11 14.007812,11 Z M 6.5,14 C 6.22386,14 6,14.2239 6,14.5 6,14.7761 6.22386,15 6.5,15 h 9 C 15.7761,15 16,14.7761 16,14.5 16,14.2239 15.7761,14 15.5,14 Z" />
  </g>
  <g
     id="22-22-input-keyboard-virtual-on"
     transform="matrix(0.26458333,0,0,0.26458333,-6.614067,6.8791667)">
    <rect
       y="-1.4e-06"
       width="22"
       height="22"
       fill="none"
       id="rect1096"
       x="25" />
    <path
       id="rect1601"
       class="ColorScheme-Text"
       style="fill:currentColor;stroke-width:0.5;stroke-linejoin:round"
       d="m 5,32 c -1.108,0 -2,0.892 -2,2 v 7 c 0,1.108 0.892,2 2,2 h 8.546875 A 3.9999998,3.9999998 0 0 1 13.134766,42 H 5 C 4.446,42 4,41.554 4,41 v -7 c 0,-0.554 0.446,-1 1,-1 h 12 c 0.554,0 1,0.446 1,1 v 3.126953 a 3.9999998,3.9999998 0 0 1 1,0.410156 V 34 c 0,-1.108 -0.892,-2 -2,-2 z m 1.5039062,2.5 c -0.4155199,0 -0.7519531,0.336433 -0.7519531,0.751953 0,0.41552 0.3364332,0.751953 0.7519531,0.751953 0.41552,0 0.7519532,-0.336433 0.7519532,-0.751953 C 7.2558594,34.836433 6.9194262,34.5 6.5039062,34.5 Z m 3,0 c -0.4155199,0 -0.7519531,0.336433 -0.7519531,0.751953 0,0.41552 0.3364332,0.751953 0.7519531,0.751953 0.41552,0 0.7519528,-0.336433 0.7519528,-0.751953 C 10.255859,34.836433 9.9194262,34.5 9.5039062,34.5 Z m 2.9999998,0 c -0.4156,0 -0.751953,0.336433 -0.751953,0.751953 0,0.41552 0.336353,0.751953 0.751953,0.751953 0.4155,0 0.751953,-0.336433 0.751953,-0.751953 0,-0.41552 -0.336453,-0.751953 -0.751953,-0.751953 z m 3,0 c -0.4156,0 -0.751953,0.336433 -0.751953,0.751953 0,0.41552 0.336353,0.751953 0.751953,0.751953 0.4155,0 0.751953,-0.336433 0.751953,-0.751953 0,-0.41552 -0.336453,-0.751953 -0.751953,-0.751953 z M 8,37 c -0.41552,0 -0.7519531,0.336433 -0.7519531,0.751953 0,0.41549 0.3364331,0.751953 0.7519531,0.751953 0.41552,0 0.7519531,-0.336463 0.7519531,-0.751953 C 8.7519531,37.336433 8.41552,37 8,37 Z m 3.003906,0 c -0.41555,0 -0.751953,0.336433 -0.751953,0.751953 0,0.41549 0.336403,0.751953 0.751953,0.751953 0.4155,0 0.751953,-0.336463 0.751953,-0.751953 C 11.755859,37.336433 11.419406,37 11.003906,37 Z m 3.00586,0 c -0.4155,0 -0.753907,0.336433 -0.753907,0.751953 0,0.376222 0.277998,0.686615 0.638672,0.742188 0.246375,-0.306522 0.536607,-0.575036 0.861328,-0.796875 C 14.727129,37.307978 14.406469,37 14.009766,37 Z m -7.5078129,3 c -0.27614,0 -0.5,0.2239 -0.5,0.5 0,0.2761 0.22386,0.5 0.5,0.5 h 6.4999999 c 0.0025,-0.337686 0.04781,-0.673692 0.134766,-1 z"
       transform="translate(24.998049,-26)" />
    <circle
       style="fill:#11d116;fill-opacity:1;stroke-width:2;stroke-linecap:round;stroke-linejoin:round"
       id="path1126"
       cx="41.998051"
       cy="15"
       r="3" />
  </g>
  <g
     id="22-22-input-keyboard-virtual-off"
     transform="matrix(0.26458333,0,0,0.26458333,-6.614067,12.435417)">
    <rect
       y="-1.4e-06"
       width="22"
       height="22"
       fill="none"
       id="rect3753"
       x="25" />
    <path
       id="rect2116"
       class="ColorScheme-Text"
       style="fill:currentColor;stroke-width:0.5;stroke-linejoin:round"
       d="m 5,53 c -1.108,0 -2,0.892 -2,2 v 7 c 0,1.108 0.892,2 2,2 h 8.546875 A 3.9999998,3.9999998 0 0 1 13.134766,63 H 5 C 4.446,63 4,62.554 4,62 v -7 c 0,-0.554 0.446,-1 1,-1 h 12 c 0.554,0 1,0.446 1,1 v 3.126953 a 3.9999998,3.9999998 0 0 1 1,0.410156 V 55 c 0,-1.108 -0.892,-2 -2,-2 z m 1.5039062,2.5 c -0.4155199,0 -0.7519531,0.336433 -0.7519531,0.751953 0,0.41552 0.3364332,0.751953 0.7519531,0.751953 0.41552,0 0.7519532,-0.336433 0.7519532,-0.751953 C 7.2558594,55.836433 6.9194262,55.5 6.5039062,55.5 Z m 3,0 c -0.4155199,0 -0.7519531,0.336433 -0.7519531,0.751953 0,0.41552 0.3364332,0.751953 0.7519531,0.751953 0.41552,0 0.7519528,-0.336433 0.7519528,-0.751953 C 10.255859,55.836433 9.9194262,55.5 9.5039062,55.5 Z m 2.9999998,0 c -0.4156,0 -0.751953,0.336433 -0.751953,0.751953 0,0.41552 0.336353,0.751953 0.751953,0.751953 0.4155,0 0.751953,-0.336433 0.751953,-0.751953 0,-0.41552 -0.336453,-0.751953 -0.751953,-0.751953 z m 3,0 c -0.4156,0 -0.751953,0.336433 -0.751953,0.751953 0,0.41552 0.336353,0.751953 0.751953,0.751953 0.4155,0 0.751953,-0.336433 0.751953,-0.751953 0,-0.41552 -0.336453,-0.751953 -0.751953,-0.751953 z M 8,58 c -0.41552,0 -0.7519531,0.336433 -0.7519531,0.751953 0,0.41549 0.3364331,0.751953 0.7519531,0.751953 0.41552,0 0.7519531,-0.336463 0.7519531,-0.751953 C 8.7519531,58.336433 8.41552,58 8,58 Z m 3.003906,0 c -0.41555,0 -0.751953,0.336433 -0.751953,0.751953 0,0.41549 0.336403,0.751953 0.751953,0.751953 0.4155,0 0.751953,-0.336463 0.751953,-0.751953 C 11.755859,58.336433 11.419406,58 11.003906,58 Z m 3.00586,0 c -0.4155,0 -0.753907,0.336433 -0.753907,0.751953 0,0.376222 0.277998,0.686615 0.638672,0.742188 0.246375,-0.306522 0.536607,-0.575035 0.861328,-0.796875 C 14.727129,58.307978 14.406469,58 14.009766,58 Z m -7.5078129,3 c -0.27614,0 -0.5,0.2239 -0.5,0.5 0,0.2761 0.22386,0.5 0.5,0.5 h 6.4999999 c 0.0025,-0.337686 0.04781,-0.673692 0.134766,-1 z"
       transform="translate(24.998049,-47.000002)" />
    <circle
       id="circle3757"
       cx="41.998051"
       cy="15"
       r="3"
       fill="currentColor"
       class="ColorScheme-Text"
       style="opacity:0.35" />
  </g>
  <g
     id="input-keyboard"
     transform="matrix(0.26458333,0,0,0.26458333,-5.0211363e-7,-1.0583333)">
    <rect
       x="24"
       y="-3"
       width="32"
       height="32"
       fill="none"
       id="rect48" />
    <path
       id="rect1050"
       d="m 29,5 c -1.108,0 -2,0.892 -2,2 v 13 c 0,1.108 0.892,2 2,2 h 22 c 1.108,0 2,-0.892 2,-2 V 7 C 53,5.892 52.108,5 51,5 Z m 0,1 h 22 c 0.554,0 1,0.446 1,1 v 13 c 0,0.554 -0.446,1 -1,1 H 29 c -0.554,0 -1,-0.446 -1,-1 V 7 c 0,-0.554 0.446,-1 1,-1 z m 3,3 a 1,1 0 0 0 -1,1 1,1 0 0 0 1,1 1,1 0 0 0 1,-1 1,1 0 0 0 -1,-1 z m 4,0 a 1,1 0 0 0 -1,1 1,1 0 0 0 1,1 1,1 0 0 0 1,-1 1,1 0 0 0 -1,-1 z m 4,0 a 1,1 0 0 0 -1,1 1,1 0 0 0 1,1 1,1 0 0 0 1,-1 1,1 0 0 0 -1,-1 z m 4,0 a 1,1 0 0 0 -1,1 1,1 0 0 0 1,1 1,1 0 0 0 1,-1 1,1 0 0 0 -1,-1 z m 4,0 a 1,1 0 0 0 -1,1 1,1 0 0 0 1,1 1,1 0 0 0 1,-1 1,1 0 0 0 -1,-1 z m -16,4 a 1,1 0 0 0 -1,1 1,1 0 0 0 1,1 1,1 0 0 0 1,-1 1,1 0 0 0 -1,-1 z m 4,0 a 1,1 0 0 0 -1,1 1,1 0 0 0 1,1 1,1 0 0 0 1,-1 1,1 0 0 0 -1,-1 z m 4,0 a 1,1 0 0 0 -1,1 1,1 0 0 0 1,1 1,1 0 0 0 1,-1 1,1 0 0 0 -1,-1 z m 4,0 a 1,1 0 0 0 -1,1 1,1 0 0 0 1,1 1,1 0 0 0 1,-1 1,1 0 0 0 -1,-1 z m 4,0 a 1,1 0 0 0 -1,1 1,1 0 0 0 1,1 1,1 0 0 0 1,-1 1,1 0 0 0 -1,-1 z m -14.5,5 c -0.277,0 -0.5,0.223 -0.5,0.5 0,0.277 0.223,0.5 0.5,0.5 h 13 C 46.777,19 47,18.777 47,18.5 47,18.223 46.777,18 46.5,18 Z"
       class="ColorScheme-Text"
       fill="currentColor" />
  </g>
  <g
     id="input-keyboard-virtual-on"
     transform="matrix(0.26458333,0,0,0.26458333,-8.7312504,-0.26458335)">
    <rect
       x="57"
       y="26"
       width="32"
       height="32"
       fill="none"
       id="rect1271" />
    <path
       id="path1273"
       class="ColorScheme-Text"
       d="m 62,34 c -1.108,0 -2,0.892 -2,2 v 13 c 0,1.108 0.892,2 2,2 H 79.015625 A 5,5 0 0 1 78.423828,50 H 62 c -0.554,0 -1,-0.446 -1,-1 V 36 c 0,-0.554 0.446,-1 1,-1 h 22 c 0.554,0 1,0.446 1,1 v 7.419922 a 5,5 0 0 1 1,0.582031 V 36 c 0,-1.108 -0.892,-2 -2,-2 z m 3,4 a 1,1 0 0 0 -1,1 1,1 0 0 0 1,1 1,1 0 0 0 1,-1 1,1 0 0 0 -1,-1 z m 4,0 a 1,1 0 0 0 -1,1 1,1 0 0 0 1,1 1,1 0 0 0 1,-1 1,1 0 0 0 -1,-1 z m 4,0 a 1,1 0 0 0 -1,1 1,1 0 0 0 1,1 1,1 0 0 0 1,-1 1,1 0 0 0 -1,-1 z m 4,0 a 1,1 0 0 0 -1,1 1,1 0 0 0 1,1 1,1 0 0 0 1,-1 1,1 0 0 0 -1,-1 z m 4,0 a 1,1 0 0 0 -1,1 1,1 0 0 0 1,1 1,1 0 0 0 1,-1 1,1 0 0 0 -1,-1 z m -16,4 a 1,1 0 0 0 -1,1 1,1 0 0 0 1,1 1,1 0 0 0 1,-1 1,1 0 0 0 -1,-1 z m 4,0 a 1,1 0 0 0 -1,1 1,1 0 0 0 1,1 1,1 0 0 0 1,-1 1,1 0 0 0 -1,-1 z m 4,0 a 1,1 0 0 0 -1,1 1,1 0 0 0 1,1 1,1 0 0 0 1,-1 1,1 0 0 0 -1,-1 z m 4,0 a 1,1 0 0 0 -1,1 1,1 0 0 0 1,1 1,1 0 0 0 1,-1 1,1 0 0 0 -1,-1 z m 4,0 a 1,1 0 0 0 -1,1 1,1 0 0 0 0.365234,0.755859 5,5 0 0 1 1.611328,-0.636718 A 1,1 0 0 0 82,43 1,1 0 0 0 81,42 Z m -14.5,5 c -0.277,0 -0.5,0.223 -0.5,0.5 0,0.277 0.223,0.5 0.5,0.5 H 78 a 5,5 0 0 1 0.113281,-1 z"
       fill="currentColor" />
    <circle
       style="fill:#11d116;fill-opacity:1;stroke-width:2;stroke-linecap:round;stroke-linejoin:round"
       id="path1301"
       cx="83"
       cy="48"
       r="4" />
  </g>
  <g
     id="input-keyboard-virtual-off"
     transform="matrix(0.26458333,0,0,0.26458333,-8.7312504,8.2020827)">
    <rect
       x="57"
       y="26"
       width="32"
       height="32"
       fill="none"
       id="rect6307" />
    <path
       id="path6309"
       class="ColorScheme-Text"
       d="m 62,34 c -1.108,0 -2,0.892 -2,2 v 13 c 0,1.108 0.892,2 2,2 H 79.015625 A 5,5 0 0 1 78.423828,50 H 62 c -0.554,0 -1,-0.446 -1,-1 V 36 c 0,-0.554 0.446,-1 1,-1 h 22 c 0.554,0 1,0.446 1,1 v 7.419922 a 5,5 0 0 1 1,0.582031 V 36 c 0,-1.108 -0.892,-2 -2,-2 z m 3,4 a 1,1 0 0 0 -1,1 1,1 0 0 0 1,1 1,1 0 0 0 1,-1 1,1 0 0 0 -1,-1 z m 4,0 a 1,1 0 0 0 -1,1 1,1 0 0 0 1,1 1,1 0 0 0 1,-1 1,1 0 0 0 -1,-1 z m 4,0 a 1,1 0 0 0 -1,1 1,1 0 0 0 1,1 1,1 0 0 0 1,-1 1,1 0 0 0 -1,-1 z m 4,0 a 1,1 0 0 0 -1,1 1,1 0 0 0 1,1 1,1 0 0 0 1,-1 1,1 0 0 0 -1,-1 z m 4,0 a 1,1 0 0 0 -1,1 1,1 0 0 0 1,1 1,1 0 0 0 1,-1 1,1 0 0 0 -1,-1 z m -16,4 a 1,1 0 0 0 -1,1 1,1 0 0 0 1,1 1,1 0 0 0 1,-1 1,1 0 0 0 -1,-1 z m 4,0 a 1,1 0 0 0 -1,1 1,1 0 0 0 1,1 1,1 0 0 0 1,-1 1,1 0 0 0 -1,-1 z m 4,0 a 1,1 0 0 0 -1,1 1,1 0 0 0 1,1 1,1 0 0 0 1,-1 1,1 0 0 0 -1,-1 z m 4,0 a 1,1 0 0 0 -1,1 1,1 0 0 0 1,1 1,1 0 0 0 1,-1 1,1 0 0 0 -1,-1 z m 4,0 a 1,1 0 0 0 -1,1 1,1 0 0 0 0.365234,0.755859 5,5 0 0 1 1.611328,-0.636718 A 1,1 0 0 0 82,43 1,1 0 0 0 81,42 Z m -14.5,5 c -0.277,0 -0.5,0.223 -0.5,0.5 0,0.277 0.223,0.5 0.5,0.5 H 78 a 5,5 0 0 1 0.113281,-1 z"
       fill="currentColor" />
    <circle
       id="circle6311"
       cx="83"
       cy="48"
       r="4"
       fill="currentColor"
       class="ColorScheme-Text"
       style="opacity:0.35" />
  </g>
</svg>
