<?xml version="1.0" encoding="UTF-8" standalone="no"?>
<!-- Created with Inkscape (http://www.inkscape.org/) -->

<svg
   width="54"
   height="32"
   viewBox="0 0 14.2875 8.4666669"
   version="1.1"
   id="svg905"
   inkscape:version="1.1.1 (3bf5ae0d25, 2021-09-20, custom)"
   sodipodi:docname="keyboard.svg"
   xmlns:inkscape="http://www.inkscape.org/namespaces/inkscape"
   xmlns:sodipodi="http://sodipodi.sourceforge.net/DTD/sodipodi-0.dtd"
   xmlns:xlink="http://www.w3.org/1999/xlink"
   xmlns="http://www.w3.org/2000/svg"
   xmlns:svg="http://www.w3.org/2000/svg">
  <sodipodi:namedview
     id="namedview907"
     pagecolor="#ffffff"
     bordercolor="#666666"
     borderopacity="1.0"
     inkscape:pageshadow="2"
     inkscape:pageopacity="0.0"
     inkscape:pagecheckerboard="0"
     inkscape:document-units="px"
     showgrid="false"
     units="px"
     inkscape:zoom="7.0383314"
     inkscape:cx="-2.9126222"
     inkscape:cy="42.694779"
     inkscape:window-width="1920"
     inkscape:window-height="1007"
     inkscape:window-x="0"
     inkscape:window-y="0"
     inkscape:window-maximized="1"
     inkscape:current-layer="svg905" />
  <defs
     id="defs902">
    <style
       id="current-color-scheme"
       type="text/css">
      .ColorScheme-Text {
        color:#31363b;
      }
      .ColorScheme-Background {
        color:#eff0f1;
      }
      .ColorScheme-Highlight {
        color:#3daee9;
      }
      .ColorScheme-ViewText {
        color:#31363b;
      }
      .ColorScheme-ViewBackground {
        color:#fcfcfc;
      }
      .ColorScheme-ViewHover {
        color:#93cee9;
      }
      .ColorScheme-ViewFocus{
        color:#3daee9;
      }
      .ColorScheme-ButtonText {
        color:#31363b;
      }
      .ColorScheme-ButtonBackground {
        color:#eff0f1;
      }
      .ColorScheme-ButtonHover {
        color:#93cee9;
      }
      .ColorScheme-ButtonFocus{
        color:#3daee9;
      }
    </style>
  </defs>
  <g
     id="22-22-keyboard-layout"
     transform="matrix(0.26458333,0,0,0.26458333,1.5e-7,2.6458338)">
    <rect
       y="-1.4e-06"
       width="22"
       height="22"
       fill="none"
       id="rect5-3"
       x="0" />
    <path
       id="rect1077"
       class="ColorScheme-Text"
       style="fill:currentColor;stroke-width:0.5;stroke-linejoin:round"
       d="M 5,6 C 3.892,6 3,6.892 3,8 v 7 c 0,1.108 0.892,2 2,2 h 12 c 1.108,0 2,-0.892 2,-2 V 8 C 19,6.892 18.108,6 17,6 Z m 0,1 h 12 c 0.554,0 1,0.446 1,1 v 7 c 0,0.554 -0.446,1 -1,1 H 5 C 4.446,16 4,15.554 4,15 V 8 C 4,7.446 4.446,7 5,7 Z M 6.5019531,8.5 C 6.0864331,8.5 5.75,8.8364331 5.75,9.2519531 c 0,0.41552 0.3364331,0.7519529 0.7519531,0.7519529 0.41552,0 0.7519531,-0.3364329 0.7519531,-0.7519529 C 7.2539062,8.8364331 6.9174731,8.5 6.5019531,8.5 Z m 3,0 C 9.0864331,8.5 8.75,8.8364331 8.75,9.2519531 c 0,0.41552 0.3364331,0.7519529 0.7519531,0.7519529 0.4155199,0 0.7519529,-0.3364329 0.7519529,-0.7519529 C 10.253906,8.8364331 9.917473,8.5 9.5019531,8.5 Z m 2.9999999,0 C 12.086353,8.5 11.75,8.8364331 11.75,9.2519531 c 0,0.41552 0.336353,0.7519529 0.751953,0.7519529 0.4155,0 0.751953,-0.3364329 0.751953,-0.7519529 C 13.253906,8.8364331 12.917453,8.5 12.501953,8.5 Z m 3,0 C 15.086353,8.5 14.75,8.8364331 14.75,9.2519531 c 0,0.41552 0.336353,0.7519529 0.751953,0.7519529 0.4155,0 0.751953,-0.3364329 0.751953,-0.7519529 C 16.253906,8.8364331 15.917453,8.5 15.501953,8.5 Z M 7.9980469,11 c -0.41552,0 -0.7519531,0.336433 -0.7519531,0.751953 0,0.41549 0.3364331,0.751953 0.7519531,0.751953 C 8.4135669,12.503906 8.75,12.167443 8.75,11.751953 8.75,11.336433 8.4135669,11 7.9980469,11 Z m 3.0039061,0 C 10.586403,11 10.25,11.336433 10.25,11.751953 c 0,0.41549 0.336403,0.751953 0.751953,0.751953 0.4155,0 0.751953,-0.336463 0.751953,-0.751953 C 11.753906,11.336433 11.417453,11 11.001953,11 Z m 3.005859,0 c -0.415499,0 -0.753906,0.336433 -0.753906,0.751953 0,0.41549 0.338407,0.751953 0.753906,0.751953 0.4156,0 0.751954,-0.336463 0.751954,-0.751953 C 14.759766,11.336433 14.423412,11 14.007812,11 Z M 6.5,14 C 6.22386,14 6,14.2239 6,14.5 6,14.7761 6.22386,15 6.5,15 h 9 C 15.7761,15 16,14.7761 16,14.5 16,14.2239 15.7761,14 15.5,14 Z" />
  </g>
  <g
     id="keyboard-layout"
     transform="matrix(0.26458333,0,0,0.26458333,-0.52916651,0.79374999)">
    <rect
       x="24"
       y="-3"
       width="32"
       height="32"
       fill="none"
       id="rect48" />
    <path
       id="rect1050"
       d="m 29,5 c -1.108,0 -2,0.892 -2,2 v 13 c 0,1.108 0.892,2 2,2 h 22 c 1.108,0 2,-0.892 2,-2 V 7 C 53,5.892 52.108,5 51,5 Z m 0,1 h 22 c 0.554,0 1,0.446 1,1 v 13 c 0,0.554 -0.446,1 -1,1 H 29 c -0.554,0 -1,-0.446 -1,-1 V 7 c 0,-0.554 0.446,-1 1,-1 z m 3,3 a 1,1 0 0 0 -1,1 1,1 0 0 0 1,1 1,1 0 0 0 1,-1 1,1 0 0 0 -1,-1 z m 4,0 a 1,1 0 0 0 -1,1 1,1 0 0 0 1,1 1,1 0 0 0 1,-1 1,1 0 0 0 -1,-1 z m 4,0 a 1,1 0 0 0 -1,1 1,1 0 0 0 1,1 1,1 0 0 0 1,-1 1,1 0 0 0 -1,-1 z m 4,0 a 1,1 0 0 0 -1,1 1,1 0 0 0 1,1 1,1 0 0 0 1,-1 1,1 0 0 0 -1,-1 z m 4,0 a 1,1 0 0 0 -1,1 1,1 0 0 0 1,1 1,1 0 0 0 1,-1 1,1 0 0 0 -1,-1 z m -16,4 a 1,1 0 0 0 -1,1 1,1 0 0 0 1,1 1,1 0 0 0 1,-1 1,1 0 0 0 -1,-1 z m 4,0 a 1,1 0 0 0 -1,1 1,1 0 0 0 1,1 1,1 0 0 0 1,-1 1,1 0 0 0 -1,-1 z m 4,0 a 1,1 0 0 0 -1,1 1,1 0 0 0 1,1 1,1 0 0 0 1,-1 1,1 0 0 0 -1,-1 z m 4,0 a 1,1 0 0 0 -1,1 1,1 0 0 0 1,1 1,1 0 0 0 1,-1 1,1 0 0 0 -1,-1 z m 4,0 a 1,1 0 0 0 -1,1 1,1 0 0 0 1,1 1,1 0 0 0 1,-1 1,1 0 0 0 -1,-1 z m -14.5,5 c -0.277,0 -0.5,0.223 -0.5,0.5 0,0.277 0.223,0.5 0.5,0.5 h 13 C 46.777,19 47,18.777 47,18.5 47,18.223 46.777,18 46.5,18 Z"
       class="ColorScheme-Text"
       fill="currentColor" />
  </g>
  <use
     x="0"
     y="0"
     xlink:href="#22-22-keyboard-layout"
     id="22-22-ibus-keyboard"
     transform="translate(-1.1834028e-7,5.8208332)"
     width="100%"
     height="100%" />
  <use
     x="0"
     y="0"
     xlink:href="#keyboard-layout"
     id="ibus-keyboard"
     transform="translate(-1.1834028e-7,8.4666666)"
     width="100%"
     height="100%" />
</svg>
