<?xml version="1.0" encoding="UTF-8" standalone="no"?>
<!-- Created with Inkscape (http://www.inkscape.org/) -->

<svg
   width="22"
   height="22"
   viewBox="0 0 5.8208332 5.8208335"
   version="1.1"
   id="svg5"
   inkscape:version="1.1.1 (3bf5ae0d25, 2021-09-20, custom)"
   sodipodi:docname="close.svg"
   xmlns:inkscape="http://www.inkscape.org/namespaces/inkscape"
   xmlns:sodipodi="http://sodipodi.sourceforge.net/DTD/sodipodi-0.dtd"
   xmlns="http://www.w3.org/2000/svg"
   xmlns:svg="http://www.w3.org/2000/svg">
  <sodipodi:namedview
     id="namedview7"
     pagecolor="#ffffff"
     bordercolor="#666666"
     borderopacity="1.0"
     inkscape:pageshadow="2"
     inkscape:pageopacity="0.0"
     inkscape:pagecheckerboard="true"
     inkscape:document-units="px"
     showgrid="false"
     units="px"
     height="22px"
     inkscape:zoom="4.918182"
     inkscape:cx="42.088723"
     inkscape:cy="30.600738"
     inkscape:window-width="1920"
     inkscape:window-height="1006"
     inkscape:window-x="0"
     inkscape:window-y="0"
     inkscape:window-maximized="1"
     inkscape:current-layer="svg5" />
  <defs
     id="defs2" />
  <g
     id="active-center">
    <rect
       style="fill:none;stroke-width:0.264583"
       id="rect846"
       width="5.8208332"
       height="5.8208332"
       x="0"
       y="0" />
    <path
       id="path1046"
       style="color:#000000;fill:#000000;fill-opacity:1;stroke:none;stroke-width:3.77953;-inkscape-stroke:none"
       d="m 6.7578125,6.2578125 c -0.1278099,0 -0.2555805,0.048549 -0.3535156,0.1464844 -0.1958703,0.1958702 -0.1958703,0.5111614 0,0.7070312 L 10.292969,11 6.4042969,14.888672 c -0.1958703,0.19587 -0.1958703,0.511161 0,0.707031 0.1958702,0.19587 0.5111614,0.19587 0.7070312,0 L 11,11.707031 l 3.888672,3.888672 c 0.19587,0.19587 0.511161,0.19587 0.707031,0 0.19587,-0.19587 0.19587,-0.511161 0,-0.707031 L 11.707031,11 15.595703,7.1113281 c 0.19587,-0.1958702 0.19587,-0.5111614 0,-0.7070312 -0.19587,-0.1958703 -0.511161,-0.1958703 -0.707031,0 L 11,10.292969 7.1113281,6.4042969 C 7.013393,6.3063618 6.8856224,6.2578125 6.7578125,6.2578125 Z"
       transform="scale(0.26458333)" />
  </g>
  <g
     id="hover-center">
    <rect
       style="fill:none;stroke-width:0.264583"
       id="rect951"
       width="5.8208332"
       height="5.8208332"
       x="5.8208332"
       y="0" />
    <rect
       style="fill:#ff5555;fill-opacity:1;stroke:none;stroke-width:0.264583"
       id="rect2400"
       width="5.8208332"
       height="5.8208332"
       x="5.8208332"
       y="0"
       ry="1.3229166" />
    <path
       id="path1938"
       style="color:#000000;fill:#ffffff;stroke-width:3.77953;-inkscape-stroke:none"
       d="m 28.757812,6.2578125 c -0.127809,0 -0.25558,0.048549 -0.353515,0.1464844 -0.19587,0.1958702 -0.19587,0.5111614 0,0.7070312 L 32.292969,11 28.404297,14.888672 c -0.19587,0.19587 -0.19587,0.511161 0,0.707031 0.19587,0.19587 0.511161,0.19587 0.707031,0 L 33,11.707031 l 3.888672,3.888672 c 0.195855,0.19587 0.511161,0.19587 0.707031,0 0.195855,-0.19587 0.195855,-0.511161 0,-0.707031 L 33.707031,11 37.595703,7.1113281 c 0.195855,-0.1958702 0.195855,-0.511161 0,-0.7070312 -0.195855,-0.1958703 -0.511161,-0.1958703 -0.707031,0 L 33,10.292969 29.111328,6.4042969 C 29.013393,6.3063618 28.885622,6.2578125 28.757812,6.2578125 Z"
       transform="scale(0.26458333)" />
  </g>
  <g
     id="pressed-center">
    <rect
       style="fill:none;stroke-width:0.264583"
       id="rect1055"
       width="5.8208332"
       height="5.8208332"
       x="11.641666"
       y="0" />
    <rect
       style="opacity:1;fill:#e83434;fill-opacity:1;stroke-width:0.264583"
       id="rect1872"
       width="5.8208332"
       height="5.8208332"
       x="11.641666"
       y="0"
       ry="1.3229166" />
    <path
       id="path2656"
       style="fill:#ffffff"
       inkscape:transform-center-x="0.36667759"
       inkscape:transform-center-y="-0.17826068"
       d="m 50.757812,6.2578125 c -0.127811,0 -0.255582,0.048549 -0.353515,0.1464844 -0.195855,0.1958702 -0.195855,0.5111614 0,0.7070312 L 54.292969,11 50.404297,14.888672 c -0.195855,0.19587 -0.195855,0.511161 0,0.707031 0.195855,0.19587 0.511161,0.19587 0.707031,0 L 55,11.707031 l 3.888672,3.888672 c 0.195855,0.19587 0.511161,0.19587 0.707031,0 0.195855,-0.19587 0.195855,-0.511161 0,-0.707031 L 55.707031,11 59.595703,7.1113281 c 0.195855,-0.1958702 0.195855,-0.5111614 0,-0.7070312 -0.195855,-0.1958703 -0.511161,-0.1958703 -0.707031,0 L 55,10.292969 51.111328,6.4042969 C 51.013401,6.3063618 50.885624,6.2578125 50.757812,6.2578125 Z"
       transform="scale(0.26458333)" />
  </g>
  <g
     id="inactive-center"
     style="opacity:0.35">
    <rect
       style="fill:none;stroke-width:0.264583"
       id="rect1057"
       width="5.8208332"
       height="5.8208332"
       x="17.4625"
       y="0" />
    <path
       id="path8457"
       style="fill:#000000;fill-opacity:1;stroke:none"
       inkscape:transform-center-x="0.028302605"
       inkscape:transform-center-y="-0.40987029"
       d="m 72.757812,6.2578125 c -0.127811,0 -0.255582,0.048549 -0.353515,0.1464844 -0.195855,0.1958702 -0.195855,0.5111614 0,0.7070312 L 76.292969,11 72.404297,14.888672 c -0.195855,0.19587 -0.195855,0.511161 0,0.707031 0.195855,0.19587 0.511161,0.19587 0.707031,0 L 77,11.707031 l 3.888672,3.888672 c 0.195855,0.19587 0.511161,0.19587 0.707031,0 0.195855,-0.19587 0.195855,-0.511161 0,-0.707031 L 77.707031,11 81.595703,7.1113281 c 0.195855,-0.1958702 0.195855,-0.511161 0,-0.7070312 -0.195855,-0.1958703 -0.511161,-0.1958703 -0.707031,0 L 77,10.292969 73.111328,6.4042969 C 73.013401,6.3063618 72.885624,6.2578125 72.757812,6.2578125 Z"
       transform="scale(0.26458333)" />
  </g>
  <g
     id="deactived-center"
     style="opacity:0.35">
    <rect
       style="fill:none;stroke-width:0.264583"
       id="rect1059"
       width="5.8208332"
       height="5.8208332"
       x="23.283333"
       y="0" />
    <path
       id="path8668"
       style="fill:#000000;fill-opacity:1;stroke:none"
       inkscape:transform-center-x="0.008040552"
       inkscape:transform-center-y="-0.46063124"
       d="m 94.757812,6.2578125 c -0.127811,0 -0.255582,0.048549 -0.353515,0.1464844 -0.195855,0.1958702 -0.195855,0.511161 0,0.7070312 L 98.292969,11 94.404297,14.888672 c -0.195855,0.19587 -0.195855,0.511161 0,0.707031 0.195855,0.19587 0.511161,0.19587 0.707031,0 L 99,11.707031 l 3.88867,3.888672 c 0.19586,0.19587 0.51116,0.19587 0.70703,0 0.19586,-0.19587 0.19586,-0.511161 0,-0.707031 L 99.707031,11 103.5957,7.1113281 c 0.19586,-0.1958702 0.19586,-0.511161 0,-0.7070312 -0.19585,-0.1958703 -0.51116,-0.1958703 -0.70703,0 L 99,10.292969 95.111328,6.4042969 C 95.013401,6.3063618 94.885624,6.2578125 94.757812,6.2578125 Z"
       transform="scale(0.26458333)" />
  </g>
</svg>
