<?xml version="1.0" encoding="UTF-8" standalone="no"?>
<!-- Created with Inkscape (http://www.inkscape.org/) -->

<svg
   width="22"
   height="22"
   viewBox="0 0 5.8208332 5.8208335"
   version="1.1"
   id="svg5"
   inkscape:version="1.1.1 (3bf5ae0d25, 2021-09-20, custom)"
   sodipodi:docname="contexthelp.svg"
   xmlns:inkscape="http://www.inkscape.org/namespaces/inkscape"
   xmlns:sodipodi="http://sodipodi.sourceforge.net/DTD/sodipodi-0.dtd"
   xmlns="http://www.w3.org/2000/svg"
   xmlns:svg="http://www.w3.org/2000/svg">
  <sodipodi:namedview
     id="namedview7"
     pagecolor="#ffffff"
     bordercolor="#666666"
     borderopacity="1.0"
     inkscape:pageshadow="2"
     inkscape:pageopacity="0.0"
     inkscape:pagecheckerboard="true"
     inkscape:document-units="px"
     showgrid="false"
     units="px"
     height="22px"
     inkscape:zoom="8.0000001"
     inkscape:cx="52.874999"
     inkscape:cy="19.5625"
     inkscape:window-width="1920"
     inkscape:window-height="1006"
     inkscape:window-x="0"
     inkscape:window-y="0"
     inkscape:window-maximized="1"
     inkscape:current-layer="svg5"
     showguides="false" />
  <defs
     id="defs2" />
  <g
     id="active-center">
    <rect
       style="fill:none;stroke-width:0.264583"
       id="rect846"
       width="5.8208332"
       height="5.8208332"
       x="0"
       y="0" />
    <path
       id="path1336"
       style="fill:#000000;stroke-width:0.330729"
       d="M 2.9104167,1.5875 A 0.9260416,0.9260416 0 0 0 1.984375,2.5135417 c 0,0.073063 0.059229,0.1322916 0.1322917,0.1322916 0.073063,0 0.1322917,-0.059229 0.1322917,-0.1322916 A 0.6614583,0.6614583 0 0 1 2.9104167,1.8520833 0.6614583,0.6614583 0 0 1 3.571875,2.5135417 0.6614583,0.6614583 0 0 1 2.9171347,3.175 a 0.6614583,0.6614583 0 0 1 -0.00672,0 c -0.07329,0 -0.1322917,0.059002 -0.1322917,0.1322917 V 3.571875 c 0,0.07329 0.059002,0.1322916 0.1322917,0.1322916 0.07329,0 0.1322917,-0.059002 0.1322917,-0.1322916 V 3.4302816 A 0.9260416,0.9260416 0 0 0 3.8364583,2.5135417 0.9260416,0.9260416 0 0 0 2.9104167,1.5875 Z m 0,2.3151041 A 0.16536458,0.16536458 0 0 0 2.7450521,4.0679687 0.16536458,0.16536458 0 0 0 2.9104167,4.2333333 0.16536458,0.16536458 0 0 0 3.0757813,4.0679687 0.16536458,0.16536458 0 0 0 2.9104167,3.9026041 Z" />
  </g>
  <g
     id="hover-center">
    <rect
       style="fill:none;stroke-width:0.264583"
       id="rect951"
       width="5.8208332"
       height="5.8208332"
       x="5.8208332"
       y="0" />
    <rect
       style="opacity:0.15;fill:#000000;fill-opacity:1;stroke-width:0.264583"
       id="rect1289"
       width="5.8208332"
       height="5.8208332"
       x="5.8208332"
       y="0"
       ry="1.3229166" />
    <path
       id="path1852"
       style="fill:#000000"
       inkscape:transform-center-x="-0.14377126"
       inkscape:transform-center-y="-0.53874388"
       d="m 33,6 a 3.4999997,3.4999997 0 0 0 -3.5,3.5 c 0,0.2761436 0.223865,0.5 0.5,0.5 0.276132,0 0.5,-0.2238575 0.5,-0.5 A 2.4999999,2.4999999 0 0 1 33,7 2.4999999,2.4999999 0 0 1 35.5,9.5 2.4999999,2.4999999 0 0 1 33.025391,12 2.4999999,2.4999999 0 0 1 33,12 c -0.277002,0 -0.5,0.223 -0.5,0.5 v 1 c 0,0.277002 0.222996,0.5 0.5,0.5 0.277002,0 0.5,-0.223 0.5,-0.5 V 12.964844 A 3.4999997,3.4999997 0 0 0 36.5,9.5 3.4999997,3.4999997 0 0 0 33,6 Z m 0,8.75 A 0.62499999,0.62499999 0 0 0 32.375,15.375 0.62499999,0.62499999 0 0 0 33,16 0.62499999,0.62499999 0 0 0 33.625,15.375 0.62499999,0.62499999 0 0 0 33,14.75 Z"
       transform="scale(0.26458333)" />
  </g>
  <g
     id="pressed-center">
    <rect
       style="fill:none;stroke-width:0.264583"
       id="rect1055"
       width="5.8208332"
       height="5.8208332"
       x="11.641666"
       y="0" />
    <rect
       style="opacity:0.35;fill:#000000;fill-opacity:1;stroke-width:0.264583"
       id="rect1872"
       width="5.8208332"
       height="5.8208332"
       x="11.641666"
       y="0"
       ry="1.3229166" />
    <path
       id="path1612"
       style="fill:#000000"
       inkscape:transform-center-x="-0.081989871"
       inkscape:transform-center-y="-0.68675907"
       d="m 55,6 a 3.4999997,3.4999997 0 0 0 -3.5,3.5 c 0,0.2761436 0.223864,0.5 0.5,0.5 0.276132,0 0.5,-0.2238575 0.5,-0.5 A 2.4999999,2.4999999 0 0 1 55,7 2.4999999,2.4999999 0 0 1 57.5,9.5 2.4999999,2.4999999 0 0 1 55.025391,12 2.4999999,2.4999999 0 0 1 55,12 c -0.277002,0 -0.5,0.223 -0.5,0.5 v 1 c 0,0.277002 0.222995,0.5 0.5,0.5 0.277002,0 0.5,-0.223 0.5,-0.5 V 12.964844 A 3.4999997,3.4999997 0 0 0 58.5,9.5 3.4999997,3.4999997 0 0 0 55,6 Z m 0,8.75 A 0.62499999,0.62499999 0 0 0 54.375,15.375 0.62499999,0.62499999 0 0 0 55,16 0.62499999,0.62499999 0 0 0 55.625,15.375 0.62499999,0.62499999 0 0 0 55,14.75 Z"
       transform="scale(0.26458333)" />
  </g>
  <g
     id="inactive-center"
     style="opacity:0.35">
    <rect
       style="fill:none;stroke-width:0.264583"
       id="rect1057"
       width="5.8208332"
       height="5.8208332"
       x="17.4625"
       y="0" />
    <path
       id="path1317"
       style="fill:#000000"
       inkscape:transform-center-x="0.091119478"
       inkscape:transform-center-y="-0.33338363"
       d="m 77,6 a 3.4999997,3.4999997 0 0 0 -3.5,3.5 c 0,0.2761436 0.223864,0.5 0.5,0.5 0.276132,0 0.5,-0.2238575 0.5,-0.5 A 2.4999999,2.4999999 0 0 1 77,7 2.4999999,2.4999999 0 0 1 79.5,9.5 2.4999999,2.4999999 0 0 1 77.025391,12 2.4999999,2.4999999 0 0 1 77,12 c -0.277002,0 -0.5,0.223 -0.5,0.5 v 1 c 0,0.277002 0.222995,0.5 0.5,0.5 0.277002,0 0.5,-0.223 0.5,-0.5 V 12.964844 A 3.4999997,3.4999997 0 0 0 80.5,9.5 3.4999997,3.4999997 0 0 0 77,6 Z m 0,8.75 A 0.62499999,0.62499999 0 0 0 76.375,15.375 0.62499999,0.62499999 0 0 0 77,16 0.62499999,0.62499999 0 0 0 77.625,15.375 0.62499999,0.62499999 0 0 0 77,14.75 Z"
       transform="scale(0.26458333)" />
  </g>
  <g
     id="deactived-center"
     style="opacity:0.35">
    <rect
       style="fill:none;stroke-width:0.264583"
       id="rect1059"
       width="5.8208332"
       height="5.8208332"
       x="23.283333"
       y="0" />
    <path
       id="path1124"
       style="fill:#000000"
       inkscape:transform-center-x="-0.0052197121"
       inkscape:transform-center-y="-0.4659527"
       d="m 99,6 a 3.4999997,3.4999997 0 0 0 -3.5,3.5 c 0,0.2761436 0.223864,0.5 0.5,0.5 0.276132,0 0.5,-0.2238575 0.5,-0.5 A 2.4999999,2.4999999 0 0 1 99,7 2.4999999,2.4999999 0 0 1 101.5,9.5 2.4999999,2.4999999 0 0 1 99.025391,12 2.4999999,2.4999999 0 0 1 99,12 c -0.277002,0 -0.5,0.223 -0.5,0.5 v 1 c 0,0.277002 0.222995,0.5 0.5,0.5 0.277002,0 0.5,-0.223 0.5,-0.5 V 12.964844 A 3.4999997,3.4999997 0 0 0 102.5,9.5 3.4999997,3.4999997 0 0 0 99,6 Z m 0,8.75 A 0.62499999,0.62499999 0 0 0 98.375,15.375 0.62499999,0.62499999 0 0 0 99,16 0.62499999,0.62499999 0 0 0 99.625,15.375 0.62499999,0.62499999 0 0 0 99,14.75 Z"
       transform="scale(0.26458333)" />
  </g>
</svg>
